<svg xmlns="http://www.w3.org/2000/svg" xmlns:xlink="http://www.w3.org/1999/xlink" x="0" y="0" width="662" height="311" style="
        width:662px;
        height:311px;
        background: #FFF;
        fill: none;
">
        <svg xmlns="http://www.w3.org/2000/svg"/>
        
        <svg xmlns="http://www.w3.org/2000/svg" class="role-diagram-draw-area"><g class="shapes-region" style="stroke: black; fill: none;"><g class="composite-shape"><path class="real" d=" M39.2,163.9 C39.2,100.44 90.64,49 154.1,49 C217.56,49 269,100.44 269,163.9 C269,227.36 217.56,278.8 154.1,278.8 C90.64,278.8 39.2,227.36 39.2,163.9 Z" style="stroke-width: 2; stroke: rgb(0, 0, 0); stroke-opacity: 1; fill: none; fill-opacity: 1;"/></g><g class="arrow-line"><path class="connection real" stroke-dasharray="" d="  M70,83.3 L154.1,164.9" style="stroke: rgb(0, 0, 0); stroke-width: 2; fill: none; fill-opacity: 1;"/></g><g class="composite-shape"><path class="real" d=" M148.35,165.1 C148.24,161.93 150.73,159.26 153.9,159.15 C157.07,159.05 159.74,161.53 159.85,164.7 C159.95,167.88 157.47,170.54 154.3,170.65 C151.12,170.76 148.46,168.27 148.35,165.1 Z" style="stroke-width: 1; stroke: rgb(0, 0, 0); fill: rgb(189, 16, 224); fill-opacity: 1;"/></g><g class="composite-shape"><path class="real" d=" M312.47,25.41 C312.36,22.24 314.85,19.58 318.02,19.47 C321.2,19.36 323.86,21.84 323.97,25.02 C324.08,28.19 321.59,30.85 318.42,30.96 C315.24,31.07 312.58,28.59 312.47,25.41 Z" style="stroke-width: 1; stroke: rgb(0, 0, 0); fill: rgb(189, 16, 224); fill-opacity: 1;"/></g><g class="composite-shape"><path class="real" d=" M178.35,114.1 C178.24,110.93 180.73,108.26 183.9,108.15 C187.07,108.05 189.74,110.53 189.85,113.7 C189.95,116.88 187.47,119.54 184.3,119.65 C181.12,119.76 178.46,117.27 178.35,114.1 Z" style="stroke-width: 1; stroke: rgb(0, 0, 0); fill: rgb(65, 117, 5); fill-opacity: 1;"/></g><g class="composite-shape"><path class="real" d=" M314.35,117.1 C314.24,113.93 316.73,111.26 319.9,111.15 C323.07,111.05 325.74,113.53 325.85,116.7 C325.95,119.88 323.47,122.54 320.3,122.65 C317.12,122.76 314.46,120.27 314.35,117.1 Z" style="stroke-width: 1; stroke: rgb(0, 0, 0); fill: rgb(65, 117, 5); fill-opacity: 1;"/></g><g/></g><g/><g/><g/></svg>
        <svg xmlns="http://www.w3.org/2000/svg" xmlns:xlink="http://www.w3.org/1999/xlink" width="660" height="309" style="width:660px;height:309px;font-family:Asana-Math, Asana;background:#FFF;"><g><g><g><g transform="matrix(1,0,0,1,139,190)"><path transform="matrix(0.017,0,0,-0.017,0,0)" d="M146 266C146 526 243 632 301 700L282 726C225 675 60 542 60 266C60 159 85 58 133 -32C168 -99 200 -138 282 -215L301 -194C255 -137 146 -15 146 266Z" stroke="rgb(0,0,0)" stroke-opacity="1" stroke-width="8" fill="rgb(0,0,0)" fill-opacity="1"></path></g></g><g><g transform="matrix(1,0,0,1,144.6484375,189.5)"><path transform="matrix(0.017,0,0,-0.017,0,0)" d="M9 1C24 -7 40 -11 52 -11C85 -11 124 18 155 65L231 182L242 113C255 28 278 -11 314 -11C336 -11 368 6 400 35L449 79L440 98C404 68 379 53 363 53C348 53 335 63 325 83C316 102 305 139 300 168L282 269L317 318C364 383 391 406 422 406C438 406 450 398 455 383L469 387L484 472C472 479 463 482 454 482C414 482 374 446 312 354L275 299L269 347C257 446 230 482 171 482C145 482 123 474 114 461L56 378L73 368C103 402 123 416 142 416C175 416 197 375 214 277L225 215L185 153C142 86 108 54 80 54C65 54 54 58 52 63L41 91L21 88C21 53 13 27 9 1Z" stroke="rgb(0,0,0)" stroke-opacity="1" stroke-width="8" fill="rgb(0,0,0)" fill-opacity="1"></path></g></g><g><g transform="matrix(1,0,0,1,153.1328125,189.5)"><path transform="matrix(0.017,0,0,-0.017,0,0)" d="M204 123C177 114 159 108 106 93C99 17 74 -48 16 -144L30 -155L71 -136C152 -31 190 32 218 109Z" stroke="rgb(0,0,0)" stroke-opacity="1" stroke-width="8" fill="rgb(0,0,0)" fill-opacity="1"></path></g></g><g><g transform="matrix(1,0,0,1,160.765625,189.5)"><path transform="matrix(0.017,0,0,-0.017,0,0)" d="M-7 -180C-8 -187 -8 -193 -8 -198C-8 -241 29 -276 74 -276C180 -276 290 -152 349 33L490 473L479 482C450 471 427 465 405 463L370 331C358 284 323 211 290 162C255 111 206 67 184 67C172 67 163 90 164 115L180 322C182 353 184 391 184 419C184 464 177 482 160 482C147 482 133 475 85 442L3 386L14 368L64 398C69 401 80 410 89 410C103 410 111 391 111 358C111 357 111 351 110 343L93 100L92 60C92 18 110 -11 135 -11C172 -11 256 74 331 187L282 16C231 -161 181 -234 111 -234C76 -234 49 -207 49 -172C49 -167 50 -159 51 -150L41 -146Z" stroke="rgb(0,0,0)" stroke-opacity="1" stroke-width="8" fill="rgb(0,0,0)" fill-opacity="1"></path></g></g><g><g transform="matrix(1,0,0,1,169.25,190)"><path transform="matrix(0.017,0,0,-0.017,0,0)" d="M51 726L32 700C87 636 187 526 187 266C187 -10 83 -131 32 -194L51 -215C104 -165 273 -23 273 265C273 542 108 675 51 726Z" stroke="rgb(0,0,0)" stroke-opacity="1" stroke-width="8" fill="rgb(0,0,0)" fill-opacity="1"></path></g></g></g></g><g><g><g><g transform="matrix(1,0,0,1,336,30)"><path transform="matrix(0.017,0,0,-0.017,0,0)" d="M146 266C146 526 243 632 301 700L282 726C225 675 60 542 60 266C60 159 85 58 133 -32C168 -99 200 -138 282 -215L301 -194C255 -137 146 -15 146 266Z" stroke="rgb(0,0,0)" stroke-opacity="1" stroke-width="8" fill="rgb(0,0,0)" fill-opacity="1"></path></g></g><g><g transform="matrix(1,0,0,1,341.6484375,29.5)"><path transform="matrix(0.017,0,0,-0.017,0,0)" d="M9 1C24 -7 40 -11 52 -11C85 -11 124 18 155 65L231 182L242 113C255 28 278 -11 314 -11C336 -11 368 6 400 35L449 79L440 98C404 68 379 53 363 53C348 53 335 63 325 83C316 102 305 139 300 168L282 269L317 318C364 383 391 406 422 406C438 406 450 398 455 383L469 387L484 472C472 479 463 482 454 482C414 482 374 446 312 354L275 299L269 347C257 446 230 482 171 482C145 482 123 474 114 461L56 378L73 368C103 402 123 416 142 416C175 416 197 375 214 277L225 215L185 153C142 86 108 54 80 54C65 54 54 58 52 63L41 91L21 88C21 53 13 27 9 1Z" stroke="rgb(0,0,0)" stroke-opacity="1" stroke-width="8" fill="rgb(0,0,0)" fill-opacity="1"></path></g></g><g><g transform="matrix(1,0,0,1,350.1328125,29.5)"><path transform="matrix(0.017,0,0,-0.017,0,0)" d="M204 123C177 114 159 108 106 93C99 17 74 -48 16 -144L30 -155L71 -136C152 -31 190 32 218 109Z" stroke="rgb(0,0,0)" stroke-opacity="1" stroke-width="8" fill="rgb(0,0,0)" fill-opacity="1"></path></g></g><g><g transform="matrix(1,0,0,1,357.765625,29.5)"><path transform="matrix(0.017,0,0,-0.017,0,0)" d="M-7 -180C-8 -187 -8 -193 -8 -198C-8 -241 29 -276 74 -276C180 -276 290 -152 349 33L490 473L479 482C450 471 427 465 405 463L370 331C358 284 323 211 290 162C255 111 206 67 184 67C172 67 163 90 164 115L180 322C182 353 184 391 184 419C184 464 177 482 160 482C147 482 133 475 85 442L3 386L14 368L64 398C69 401 80 410 89 410C103 410 111 391 111 358C111 357 111 351 110 343L93 100L92 60C92 18 110 -11 135 -11C172 -11 256 74 331 187L282 16C231 -161 181 -234 111 -234C76 -234 49 -207 49 -172C49 -167 50 -159 51 -150L41 -146Z" stroke="rgb(0,0,0)" stroke-opacity="1" stroke-width="8" fill="rgb(0,0,0)" fill-opacity="1"></path></g></g><g><g transform="matrix(1,0,0,1,366.25,30)"><path transform="matrix(0.017,0,0,-0.017,0,0)" d="M51 726L32 700C87 636 187 526 187 266C187 -10 83 -131 32 -194L51 -215C104 -165 273 -23 273 265C273 542 108 675 51 726Z" stroke="rgb(0,0,0)" stroke-opacity="1" stroke-width="8" fill="rgb(0,0,0)" fill-opacity="1"></path></g></g><g><g transform="matrix(1,0,0,1,371.8984375,29.5)"><path transform="matrix(0.017,0,0,-0.017,0,0)" d="" stroke="rgb(0,0,0)" stroke-opacity="1" stroke-width="8" fill="rgb(0,0,0)" fill-opacity="1"></path></g></g><g><g transform="matrix(1,0,0,1,381.2265625,29.5)"><path transform="matrix(0.017,0,0,-0.017,0,0)" d="M604 347L604 406L65 406L65 347ZM604 134L604 193L65 193L65 134Z" stroke="rgb(0,0,0)" stroke-opacity="1" stroke-width="8" fill="rgb(0,0,0)" fill-opacity="1"></path></g></g><g><g transform="matrix(1,0,0,1,397.6796875,29.5)"><path transform="matrix(0.017,0,0,-0.017,0,0)" d="M598 664L601 692L487 689C471 689 453 689 410 690L346 692L343 664L390 662C414 661 425 653 425 635L330 55C326 37 314 30 270 23L265 -3L306 -2C337 -1 399 0 419 0C419 0 716 -1 716 -1C716 -1 749 0 749 0C748 25 759 103 772 165L741 165L724 103C715 71 706 54 697 49C684 44 620 39 553 39C504 39 477 40 411 46C414 64 505 605 505 613C512 651 519 658 556 661ZM1075 204L1046 77C1042 60 1040 42 1040 26C1040 4 1049 -9 1064 -9C1087 -9 1128 17 1210 85L1203 106C1179 86 1150 59 1128 59C1119 59 1113 68 1113 82C1113 87 1113 90 1114 93L1206 472L1196 481L1163 463C1122 478 1105 482 1078 482C1050 482 1030 477 1003 464C941 433 908 403 883 354C839 265 808 145 808 67C808 23 823 -11 842 -11C879 -11 959 41 1075 204ZM1123 414C1101 305 1082 253 1048 201C991 117 930 59 898 59C886 59 880 72 880 99C880 163 908 280 943 360C967 415 990 433 1038 433C1061 433 1079 429 1123 414ZM1372 390L1316 107C1315 99 1303 61 1303 31C1303 6 1314 -9 1333 -9C1368 -9 1403 11 1481 74L1512 99L1502 117L1457 86C1428 66 1408 56 1397 56C1388 56 1383 64 1383 76C1383 102 1397 183 1426 328L1439 390L1546 390L1557 440C1519 436 1485 434 1447 434C1463 528 1474 577 1492 631L1481 646C1461 634 1434 622 1403 610L1378 440C1334 419 1308 408 1290 403L1288 390ZM1613 388L1620 368L1652 389C1689 412 1692 414 1699 414C1709 414 1717 404 1717 391C1717 384 1713 361 1709 347L1643 107C1635 76 1630 49 1630 30C1630 6 1641 -9 1660 -9C1686 -9 1722 12 1820 85L1810 103L1784 86C1755 67 1732 56 1723 56C1716 56 1710 66 1710 76C1710 86 1712 95 1717 116L1794 420C1798 437 1800 448 1800 456C1800 473 1791 482 1775 482C1753 482 1716 461 1641 408ZM1807 712C1778 712 1749 679 1749 645C1749 620 1764 604 1788 604C1819 604 1843 633 1843 671C1843 695 1828 712 1807 712ZM1981 390L1925 107C1924 99 1912 61 1912 31C1912 6 1923 -9 1942 -9C1977 -9 2012 11 2090 74L2121 99L2111 117L2066 86C2037 66 2017 56 2006 56C1997 56 1992 64 1992 76C1992 102 2006 183 2035 328L2048 390L2155 390L2166 440C2128 436 2094 434 2056 434C2072 528 2083 577 2101 631L2090 646C2070 634 2043 622 2012 610L1987 440C1943 419 1917 408 1899 403L1897 390ZM2680 473L2673 482L2605 465L2595 414C2580 336 2555 268 2524 221C2465 130 2387 59 2347 59C2339 59 2334 68 2334 85C2334 99 2336 112 2341 137L2398 408C2401 424 2403 438 2403 451C2403 470 2394 482 2380 482C2360 482 2322 461 2248 408L2220 388L2227 368L2259 389C2287 407 2298 412 2307 412C2316 412 2324 403 2324 392C2324 388 2323 378 2322 374L2259 77C2257 68 2255 44 2255 30C2255 7 2270 -11 2290 -11C2353 -11 2474 101 2558 239L2521 97C2514 73 2510 46 2510 31C2510 6 2521 -9 2540 -9C2566 -9 2602 12 2700 85L2690 103L2664 86C2640 70 2614 59 2603 59C2595 59 2590 66 2590 76C2590 112 2665 416 2680 473ZM3226 722L3214 733C3162 707 3126 698 3054 691L3050 670L3098 670C3122 670 3132 663 3132 646C3132 638 3131 629 3130 622L3102 468C3072 477 3045 482 3020 482C2951 482 2857 410 2811 323C2780 265 2760 170 2760 86C2760 21 2775 -11 2804 -11C2831 -11 2868 6 2902 33C2956 77 2989 116 3056 217L3033 126C3022 82 3017 50 3017 24C3017 3 3026 -9 3043 -9C3060 -9 3084 3 3118 28L3199 88L3189 107L3145 76C3131 66 3115 59 3106 59C3098 59 3092 68 3092 82C3092 90 3093 99 3100 128ZM2857 59C2841 59 2832 73 2832 98C2832 224 2878 380 2927 418C2940 428 2959 433 2986 433C3030 433 3059 427 3092 410L3080 351C3043 171 2902 59 2857 59ZM3570 111L3546 94C3493 56 3445 36 3409 36C3362 36 3333 73 3333 133C3333 158 3336 185 3341 214C3358 218 3467 248 3492 259C3577 296 3616 342 3616 404C3616 451 3582 482 3532 482C3464 496 3354 423 3317 349C3287 299 3257 180 3257 113C3257 35 3301 -11 3373 -11C3430 -11 3486 17 3578 92ZM3355 274C3372 343 3392 386 3421 412C3439 428 3470 440 3494 440C3523 440 3542 420 3542 388C3542 344 3507 297 3455 272C3427 258 3391 247 3346 237ZM4150 204L4121 77C4117 60 4115 42 4115 26C4115 4 4124 -9 4139 -9C4162 -9 4203 17 4285 85L4278 106C4254 86 4225 59 4203 59C4194 59 4188 68 4188 82C4188 87 4188 90 4189 93L4281 472L4271 481L4238 463C4197 478 4180 482 4153 482C4125 482 4105 477 4078 464C4016 433 3983 403 3958 354C3914 265 3883 145 3883 67C3883 23 3898 -11 3917 -11C3954 -11 4034 41 4150 204ZM4198 414C4176 305 4157 253 4123 201C4066 117 4005 59 3973 59C3961 59 3955 72 3955 99C3955 163 3983 280 4018 360C4042 415 4065 433 4113 433C4136 433 4154 429 4198 414ZM4346 388L4353 368L4385 389C4422 412 4425 414 4432 414C4443 414 4450 404 4450 389C4450 338 4409 145 4368 2L4375 -9C4400 -2 4423 4 4445 8C4464 134 4485 199 4531 268C4585 352 4660 414 4705 414C4716 414 4722 405 4722 390C4722 372 4719 351 4711 319L4659 107C4650 70 4646 47 4646 31C4646 6 4657 -9 4676 -9C4702 -9 4738 12 4836 85L4826 103L4800 86C4771 67 4749 56 4739 56C4732 56 4726 65 4726 76C4726 81 4727 92 4728 96L4794 372C4801 401 4805 429 4805 446C4805 469 4794 482 4774 482C4732 482 4663 444 4604 389C4566 354 4538 320 4486 247L4524 408C4528 426 4530 438 4530 449C4530 470 4522 482 4507 482C4486 482 4447 460 4374 408ZM5360 722L5348 733C5296 707 5260 698 5188 691L5184 670L5232 670C5256 670 5266 663 5266 646C5266 638 5265 629 5264 622L5236 468C5206 477 5179 482 5154 482C5085 482 4991 410 4945 323C4914 265 4894 170 4894 86C4894 21 4909 -11 4938 -11C4965 -11 5002 6 5036 33C5090 77 5123 116 5190 217L5167 126C5156 82 5151 50 5151 24C5151 3 5160 -9 5177 -9C5194 -9 5218 3 5252 28L5333 88L5323 107L5279 76C5265 66 5249 59 5240 59C5232 59 5226 68 5226 82C5226 90 5227 99 5234 128ZM4991 59C4975 59 4966 73 4966 98C4966 224 5012 380 5061 418C5074 428 5093 433 5120 433C5164 433 5193 427 5226 410L5214 351C5177 171 5036 59 4991 59ZM5876 722L5864 733C5812 707 5776 698 5704 691L5700 670L5748 670C5772 670 5782 663 5782 648C5782 645 5782 640 5779 622C5768 567 5695 182 5680 132C5667 82 5661 52 5661 31C5661 6 5672 -9 5691 -9C5717 -9 5753 12 5851 85L5841 103L5815 86C5786 67 5764 56 5754 56C5747 56 5741 66 5741 76C5741 82 5742 89 5745 104ZM5919 152C5919 46 5964 -11 6047 -11C6102 -11 6162 15 6207 57C6269 116 6313 230 6313 331C6313 425 6263 482 6180 482C6076 482 5919 382 5919 152ZM6143 444C6204 444 6237 399 6237 315C6237 219 6206 113 6162 60C6144 39 6118 27 6087 27C6029 27 5995 72 5995 151C5995 264 6034 387 6083 427C6096 438 6119 444 6143 444ZM6369 388L6376 368L6408 389C6445 412 6448 414 6455 414C6466 414 6473 404 6473 389C6473 338 6432 145 6391 2L6398 -9C6423 -2 6446 4 6468 8C6487 134 6508 199 6554 268C6608 352 6683 414 6728 414C6739 414 6745 405 6745 390C6745 372 6742 351 6734 319L6682 107C6673 70 6669 47 6669 31C6669 6 6680 -9 6699 -9C6725 -9 6761 12 6859 85L6849 103L6823 86C6794 67 6772 56 6762 56C6755 56 6749 65 6749 76C6749 81 6750 92 6751 96L6817 372C6824 401 6828 429 6828 446C6828 469 6817 482 6797 482C6755 482 6686 444 6627 389C6589 354 6561 320 6509 247L6547 408C6551 426 6553 438 6553 449C6553 470 6545 482 6530 482C6509 482 6470 460 6397 408ZM7175 482C7108 482 6955 419 6955 259C6955 182 7000 136 7077 136C7085 136 7096 136 7107 137L7066 99C7050 84 7039 66 7039 52C7039 42 7046 31 7060 19C6991 -4 6863 -48 6863 -159C6863 -230 6933 -276 7042 -276C7171 -276 7284 -204 7284 -121C7284 -85 7263 -49 7220 -14L7160 35C7126 62 7113 81 7113 100C7113 114 7128 128 7140 146C7238 170 7309 253 7309 342C7309 357 7306 376 7305 380C7322 378 7330 378 7339 378C7356 378 7366 379 7389 382L7398 427L7395 433C7367 426 7347 424 7293 424C7293 425 7269 482 7175 482ZM7076 1L7153 -58C7199 -94 7218 -121 7218 -154C7218 -206 7149 -248 7066 -248C6984 -248 6927 -206 6927 -145C6927 -43 7037 -11 7076 1ZM7150 448C7208 448 7237 412 7237 341C7237 238 7189 168 7119 168C7058 168 7026 209 7026 288C7026 383 7077 448 7150 448ZM7433 388L7440 368L7472 389C7509 412 7512 414 7519 414C7529 414 7537 404 7537 391C7537 384 7533 361 7529 347L7463 107C7455 76 7450 49 7450 30C7450 6 7461 -9 7480 -9C7506 -9 7542 12 7640 85L7630 103L7604 86C7575 67 7552 56 7543 56C7536 56 7530 66 7530 76C7530 86 7532 95 7537 116L7614 420C7618 437 7620 448 7620 456C7620 473 7611 482 7595 482C7573 482 7536 461 7461 408ZM7627 712C7598 712 7569 679 7569 645C7569 620 7584 604 7608 604C7639 604 7663 633 7663 671C7663 695 7648 712 7627 712ZM7801 390L7745 107C7744 99 7732 61 7732 31C7732 6 7743 -9 7762 -9C7797 -9 7832 11 7910 74L7941 99L7931 117L7886 86C7857 66 7837 56 7826 56C7817 56 7812 64 7812 76C7812 102 7826 183 7855 328L7868 390L7975 390L7986 440C7948 436 7914 434 7876 434C7892 528 7903 577 7921 631L7910 646C7890 634 7863 622 7832 610L7807 440C7763 419 7737 408 7719 403L7717 390ZM8500 473L8493 482L8425 465L8415 414C8400 336 8375 268 8344 221C8285 130 8207 59 8167 59C8159 59 8154 68 8154 85C8154 99 8156 112 8161 137L8218 408C8221 424 8223 438 8223 451C8223 470 8214 482 8200 482C8180 482 8142 461 8068 408L8040 388L8047 368L8079 389C8107 407 8118 412 8127 412C8136 412 8144 403 8144 392C8144 388 8143 378 8142 374L8079 77C8077 68 8075 44 8075 30C8075 7 8090 -11 8110 -11C8173 -11 8294 101 8378 239L8341 97C8334 73 8330 46 8330 31C8330 6 8341 -9 8360 -9C8386 -9 8422 12 8520 85L8510 103L8484 86C8460 70 8434 59 8423 59C8415 59 8410 66 8410 76C8410 112 8485 416 8500 473ZM9046 722L9034 733C8982 707 8946 698 8874 691L8870 670L8918 670C8942 670 8952 663 8952 646C8952 638 8951 629 8950 622L8922 468C8892 477 8865 482 8840 482C8771 482 8677 410 8631 323C8600 265 8580 170 8580 86C8580 21 8595 -11 8624 -11C8651 -11 8688 6 8722 33C8776 77 8809 116 8876 217L8853 126C8842 82 8837 50 8837 24C8837 3 8846 -9 8863 -9C8880 -9 8904 3 8938 28L9019 88L9009 107L8965 76C8951 66 8935 59 8926 59C8918 59 8912 68 8912 82C8912 90 8913 99 8920 128ZM8677 59C8661 59 8652 73 8652 98C8652 224 8698 380 8747 418C8760 428 8779 433 8806 433C8850 433 8879 427 8912 410L8900 351C8863 171 8722 59 8677 59ZM9390 111L9366 94C9313 56 9265 36 9229 36C9182 36 9153 73 9153 133C9153 158 9156 185 9161 214C9178 218 9287 248 9312 259C9397 296 9436 342 9436 404C9436 451 9402 482 9352 482C9284 496 9174 423 9137 349C9107 299 9077 180 9077 113C9077 35 9121 -11 9193 -11C9250 -11 9306 17 9398 92ZM9175 274C9192 343 9212 386 9241 412C9259 428 9290 440 9314 440C9343 440 9362 420 9362 388C9362 344 9327 297 9275 272C9247 258 9211 247 9166 237ZM9716 152C9716 46 9761 -11 9844 -11C9899 -11 9959 15 10004 57C10066 116 10110 230 10110 331C10110 425 10060 482 9977 482C9873 482 9716 382 9716 152ZM9940 444C10001 444 10034 399 10034 315C10034 219 10003 113 9959 60C9941 39 9915 27 9884 27C9826 27 9792 72 9792 151C9792 264 9831 387 9880 427C9893 438 9916 444 9940 444ZM10487 437L10471 437L10492 549C10508 635 10536 673 10582 673C10612 673 10639 658 10654 634L10664 638C10669 654 10679 685 10687 705L10692 720C10676 727 10645 733 10622 733C10611 733 10595 730 10587 726C10563 715 10481 654 10458 630C10436 608 10424 578 10413 521L10398 442C10357 422 10337 414 10312 405L10307 383L10388 383L10379 327C10349 132 10312 -54 10290 -123C10272 -182 10242 -213 10206 -213C10183 -213 10172 -206 10154 -184L10140 -188C10136 -211 10122 -259 10117 -268C10126 -273 10141 -276 10152 -276C10193 -276 10247 -245 10286 -198C10357 -114 10377 -18 10461 383L10565 383C10569 402 10576 425 10582 439L10578 446C10549 439 10550 437 10487 437ZM11066 390L11010 107C11009 99 10997 61 10997 31C10997 6 11008 -9 11027 -9C11062 -9 11097 11 11175 74L11206 99L11196 117L11151 86C11122 66 11102 56 11091 56C11082 56 11077 64 11077 76C11077 102 11091 183 11120 328L11133 390L11240 390L11251 440C11213 436 11179 434 11141 434C11157 528 11168 577 11186 631L11175 646C11155 634 11128 622 11097 610L11072 440C11028 419 11002 408 10984 403L10982 390ZM11509 722L11497 733C11452 711 11411 697 11337 691L11333 670L11381 670C11399 670 11415 667 11415 647C11415 641 11415 632 11413 622L11371 388C11351 272 11309 80 11283 2L11290 -9L11359 7C11367 64 11381 164 11421 236C11466 317 11569 414 11611 414C11622 414 11633 407 11633 393C11633 375 11628 342 11618 303L11567 107C11561 85 11554 55 11554 31C11554 6 11564 -9 11585 -9C11617 -9 11685 41 11744 85L11734 103L11708 86C11685 71 11659 56 11647 56C11640 56 11634 65 11634 76C11634 88 11637 101 11641 116L11705 372C11711 398 11716 423 11716 447C11716 464 11710 482 11684 482C11649 482 11572 437 11504 374C11471 343 11445 308 11417 273L11413 275ZM12100 111L12076 94C12023 56 11975 36 11939 36C11892 36 11863 73 11863 133C11863 158 11866 185 11871 214C11888 218 11997 248 12022 259C12107 296 12146 342 12146 404C12146 451 12112 482 12062 482C11994 496 11884 423 11847 349C11817 299 11787 180 11787 113C11787 35 11831 -11 11903 -11C11960 -11 12016 17 12108 92ZM11885 274C11902 343 11922 386 11951 412C11969 428 12000 440 12024 440C12053 440 12072 420 12072 388C12072 344 12037 297 11985 272C11957 258 11921 247 11876 237Z" stroke="rgb(0,0,0)" stroke-opacity="1" stroke-width="8" fill="rgb(0,0,0)" fill-opacity="1"></path></g></g></g><g><g><g transform="matrix(1,0,0,1,336,49.8984375)"><path transform="matrix(0.017,0,0,-0.017,0,0)" d="M166 420C187 420 203 421 229 424C118 304 76 221 76 121C76 44 122 -11 186 -11C324 -11 477 236 477 384C477 441 451 482 415 482C402 482 390 478 382 470L332 423L343 404C352 410 361 413 370 413C397 413 413 390 413 350C413 202 316 39 228 39C179 39 148 81 148 146C148 251 187 342 285 464L275 482C255 473 242 470 214 470C186 470 144 472 115 475L103 476C97 477 92 477 91 477C79 477 70 475 59 470C45 443 34 407 21 352L43 352L60 394C67 411 87 422 111 422C144 422 128 420 166 420ZM533 388L540 368L572 389C609 412 612 414 619 414C629 414 637 404 637 391C637 384 633 361 629 347L563 107C555 76 550 49 550 30C550 6 561 -9 580 -9C606 -9 642 12 740 85L730 103L704 86C675 67 652 56 643 56C636 56 630 66 630 76C630 86 632 95 637 116L714 420C718 437 720 448 720 456C720 473 711 482 695 482C673 482 636 461 561 408ZM727 712C698 712 669 679 669 645C669 620 684 604 708 604C739 604 763 633 763 671C763 695 748 712 727 712ZM1104 111L1080 94C1027 56 979 36 943 36C896 36 867 73 867 133C867 158 870 185 875 214C892 218 1001 248 1026 259C1111 296 1150 342 1150 404C1150 451 1116 482 1066 482C998 496 888 423 851 349C821 299 791 180 791 113C791 35 835 -11 907 -11C964 -11 1020 17 1112 92ZM889 274C906 343 926 386 955 412C973 428 1004 440 1028 440C1057 440 1076 420 1076 388C1076 344 1041 297 989 272C961 258 925 247 880 237ZM1331 420C1352 420 1365 421 1390 424C1335 350 1236 266 1236 126C1236 44 1271 -11 1324 -11C1388 -11 1440 44 1514 187C1505 143 1502 118 1502 95C1502 32 1531 -11 1576 -11C1710 -11 1863 238 1863 384C1863 441 1837 482 1801 482C1788 482 1776 478 1768 470L1718 423L1729 404C1738 410 1747 413 1756 413C1783 413 1799 390 1799 350C1799 205 1702 39 1617 39C1588 39 1567 79 1567 134C1567 181 1576 247 1588 290L1640 474L1633 482L1559 460L1530 311C1518 249 1504 209 1475 155C1435 80 1397 39 1367 39C1332 39 1309 78 1309 136C1309 255 1350 352 1449 464L1439 482C1419 473 1406 470 1378 470C1350 470 1308 472 1279 475L1267 476C1261 477 1256 477 1255 477C1243 477 1234 475 1223 470C1209 443 1198 407 1185 352L1207 352L1224 394C1231 411 1251 422 1275 422C1309 422 1292 420 1331 420ZM2213 111L2189 94C2136 56 2088 36 2052 36C2005 36 1976 73 1976 133C1976 158 1979 185 1984 214C2001 218 2110 248 2135 259C2220 296 2259 342 2259 404C2259 451 2225 482 2175 482C2107 496 1997 423 1960 349C1930 299 1900 180 1900 113C1900 35 1944 -11 2016 -11C2073 -11 2129 17 2221 92ZM1998 274C2015 343 2035 386 2064 412C2082 428 2113 440 2137 440C2166 440 2185 420 2185 388C2185 344 2150 297 2098 272C2070 258 2034 247 1989 237ZM2641 365C2644 403 2649 435 2657 476C2646 481 2642 482 2637 482C2606 482 2575 458 2539 407C2500 351 2461 291 2445 256L2477 408C2481 425 2483 438 2483 450C2483 470 2475 482 2460 482C2439 482 2401 461 2327 408L2299 388L2306 368L2338 389C2366 407 2377 412 2386 412C2396 412 2403 403 2403 390C2403 332 2360 126 2320 -2L2330 -9C2345 -4 2361 -1 2384 4L2397 6L2423 126C2441 209 2464 262 2508 319C2542 363 2569 384 2591 384C2606 384 2616 379 2627 365Z" stroke="rgb(0,0,0)" stroke-opacity="1" stroke-width="8" fill="rgb(0,0,0)" fill-opacity="1"></path></g></g></g></g><g><g><g><g transform="matrix(1,0,0,1,341.09375,76.9453125)"><path transform="matrix(0.017,0,0,-0.017,0,0)" d="M368 365C371 403 376 435 384 476C373 481 369 482 364 482C333 482 302 458 266 407C227 351 188 291 172 256L204 408C208 425 210 438 210 450C210 470 202 482 187 482C166 482 128 461 54 408L26 388L33 368L65 389C93 407 104 412 113 412C123 412 130 403 130 390C130 332 87 126 47 -2L57 -9C72 -4 88 -1 111 4L124 6L150 126C168 209 191 262 235 319C269 363 296 384 318 384C333 384 343 379 354 365Z" stroke="rgb(0,0,0)" stroke-opacity="1" stroke-width="8" fill="rgb(0,0,0)" fill-opacity="1"></path></g></g><g><g transform="matrix(1,0,0,1,357.0234375,76.9453125)"><path transform="matrix(0.017,0,0,-0.017,0,0)" d="M604 347L604 406L65 406L65 347ZM604 134L604 193L65 193L65 134Z" stroke="rgb(0,0,0)" stroke-opacity="1" stroke-width="8" fill="rgb(0,0,0)" fill-opacity="1"></path></g></g><g><g transform="matrix(1,0,0,1,373.4765625,76.9453125)"><path transform="matrix(0.017,0,0,-0.017,0,0)" d="M617 365C620 403 625 435 633 476C622 481 618 482 613 482C582 482 551 458 515 407C476 351 437 291 421 256L453 408C457 425 459 438 459 450C459 470 451 482 436 482C415 482 377 461 303 408L275 388L282 368L314 389C342 407 353 412 362 412C372 412 379 403 379 390C379 332 336 126 296 -2L306 -9C321 -4 337 -1 360 4L373 6L399 126C417 209 440 262 484 319C518 363 545 384 567 384C582 384 592 379 603 365ZM908 204L879 77C875 60 873 42 873 26C873 4 882 -9 897 -9C920 -9 961 17 1043 85L1036 106C1012 86 983 59 961 59C952 59 946 68 946 82C946 87 946 90 947 93L1039 472L1029 481L996 463C955 478 938 482 911 482C883 482 863 477 836 464C774 433 741 403 716 354C672 265 641 145 641 67C641 23 656 -11 675 -11C712 -11 792 41 908 204ZM956 414C934 305 915 253 881 201C824 117 763 59 731 59C719 59 713 72 713 99C713 163 741 280 776 360C800 415 823 433 871 433C894 433 912 429 956 414ZM1563 722L1551 733C1499 707 1463 698 1391 691L1387 670L1435 670C1459 670 1469 663 1469 646C1469 638 1468 629 1467 622L1439 468C1409 477 1382 482 1357 482C1288 482 1194 410 1148 323C1117 265 1097 170 1097 86C1097 21 1112 -11 1141 -11C1168 -11 1205 6 1239 33C1293 77 1326 116 1393 217L1370 126C1359 82 1354 50 1354 24C1354 3 1363 -9 1380 -9C1397 -9 1421 3 1455 28L1536 88L1526 107L1482 76C1468 66 1452 59 1443 59C1435 59 1429 68 1429 82C1429 90 1430 99 1437 128ZM1194 59C1178 59 1169 73 1169 98C1169 224 1215 380 1264 418C1277 428 1296 433 1323 433C1367 433 1396 427 1429 410L1417 351C1380 171 1239 59 1194 59ZM1613 388L1620 368L1652 389C1689 412 1692 414 1699 414C1709 414 1717 404 1717 391C1717 384 1713 361 1709 347L1643 107C1635 76 1630 49 1630 30C1630 6 1641 -9 1660 -9C1686 -9 1722 12 1820 85L1810 103L1784 86C1755 67 1732 56 1723 56C1716 56 1710 66 1710 76C1710 86 1712 95 1717 116L1794 420C1798 437 1800 448 1800 456C1800 473 1791 482 1775 482C1753 482 1716 461 1641 408ZM1807 712C1778 712 1749 679 1749 645C1749 620 1764 604 1788 604C1819 604 1843 633 1843 671C1843 695 1828 712 1807 712ZM2348 473L2341 482L2273 465L2263 414C2248 336 2223 268 2192 221C2133 130 2055 59 2015 59C2007 59 2002 68 2002 85C2002 99 2004 112 2009 137L2066 408C2069 424 2071 438 2071 451C2071 470 2062 482 2048 482C2028 482 1990 461 1916 408L1888 388L1895 368L1927 389C1955 407 1966 412 1975 412C1984 412 1992 403 1992 392C1992 388 1991 378 1990 374L1927 77C1925 68 1923 44 1923 30C1923 7 1938 -11 1958 -11C2021 -11 2142 101 2226 239L2189 97C2182 73 2178 46 2178 31C2178 6 2189 -9 2208 -9C2234 -9 2270 12 2368 85L2358 103L2332 86C2308 70 2282 59 2271 59C2263 59 2258 66 2258 76C2258 112 2333 416 2348 473ZM2442 148C2437 97 2431 62 2420 16C2458 -2 2492 -11 2527 -11C2576 -11 2622 7 2673 47C2724 87 2745 124 2745 174C2745 228 2713 257 2639 271L2596 279C2536 290 2517 307 2517 348C2517 401 2562 442 2619 442C2660 442 2698 424 2714 397L2714 342L2737 342C2741 377 2745 404 2756 455C2717 474 2689 482 2656 482C2604 482 2543 452 2495 404C2469 377 2458 352 2458 316C2458 260 2489 228 2555 215L2618 203C2662 195 2678 177 2678 138C2678 73 2632 29 2561 29C2526 29 2495 40 2467 64L2467 148ZM3065 152C3065 46 3110 -11 3193 -11C3248 -11 3308 15 3353 57C3415 116 3459 230 3459 331C3459 425 3409 482 3326 482C3222 482 3065 382 3065 152ZM3289 444C3350 444 3383 399 3383 315C3383 219 3352 113 3308 60C3290 39 3264 27 3233 27C3175 27 3141 72 3141 151C3141 264 3180 387 3229 427C3242 438 3265 444 3289 444ZM3836 437L3820 437L3841 549C3857 635 3885 673 3931 673C3961 673 3988 658 4003 634L4013 638C4018 654 4028 685 4036 705L4041 720C4025 727 3994 733 3971 733C3960 733 3944 730 3936 726C3912 715 3830 654 3807 630C3785 608 3773 578 3762 521L3747 442C3706 422 3686 414 3661 405L3656 383L3737 383L3728 327C3698 132 3661 -54 3639 -123C3621 -182 3591 -213 3555 -213C3532 -213 3521 -206 3503 -184L3489 -188C3485 -211 3471 -259 3466 -268C3475 -273 3490 -276 3501 -276C3542 -276 3596 -245 3635 -198C3706 -114 3726 -18 3810 383L3914 383C3918 402 3925 425 3931 439L3927 446C3898 439 3899 437 3836 437ZM4635 437L4619 437L4640 549C4656 635 4684 673 4730 673C4760 673 4787 658 4802 634L4812 638C4817 654 4827 685 4835 705L4840 720C4824 727 4793 733 4770 733C4759 733 4743 730 4735 726C4711 715 4629 654 4606 630C4584 608 4572 578 4561 521L4546 442C4505 422 4485 414 4460 405L4455 383L4536 383L4527 327C4497 132 4460 -54 4438 -123C4420 -182 4390 -213 4354 -213C4331 -213 4320 -206 4302 -184L4288 -188C4284 -211 4270 -259 4265 -268C4274 -273 4289 -276 4300 -276C4341 -276 4395 -245 4434 -198C4505 -114 4525 -18 4609 383L4713 383C4717 402 4724 425 4730 439L4726 446C4697 439 4698 437 4635 437ZM4874 388L4881 368L4913 389C4950 412 4953 414 4960 414C4970 414 4978 404 4978 391C4978 384 4974 361 4970 347L4904 107C4896 76 4891 49 4891 30C4891 6 4902 -9 4921 -9C4947 -9 4983 12 5081 85L5071 103L5045 86C5016 67 4993 56 4984 56C4977 56 4971 66 4971 76C4971 86 4973 95 4978 116L5055 420C5059 437 5061 448 5061 456C5061 473 5052 482 5036 482C5014 482 4977 461 4902 408ZM5068 712C5039 712 5010 679 5010 645C5010 620 5025 604 5049 604C5080 604 5104 633 5104 671C5104 695 5089 712 5068 712ZM5445 111L5421 94C5368 56 5320 36 5284 36C5237 36 5208 73 5208 133C5208 158 5211 185 5216 214C5233 218 5342 248 5367 259C5452 296 5491 342 5491 404C5491 451 5457 482 5407 482C5339 496 5229 423 5192 349C5162 299 5132 180 5132 113C5132 35 5176 -11 5248 -11C5305 -11 5361 17 5453 92ZM5230 274C5247 343 5267 386 5296 412C5314 428 5345 440 5369 440C5398 440 5417 420 5417 388C5417 344 5382 297 5330 272C5302 258 5266 247 5221 237ZM5756 722L5744 733C5692 707 5656 698 5584 691L5580 670L5628 670C5652 670 5662 663 5662 648C5662 645 5662 640 5659 622C5648 567 5575 182 5560 132C5547 82 5541 52 5541 31C5541 6 5552 -9 5571 -9C5597 -9 5633 12 5731 85L5721 103L5695 86C5666 67 5644 56 5634 56C5627 56 5621 66 5621 76C5621 82 5622 89 5625 104ZM6265 722L6253 733C6201 707 6165 698 6093 691L6089 670L6137 670C6161 670 6171 663 6171 646C6171 638 6170 629 6169 622L6141 468C6111 477 6084 482 6059 482C5990 482 5896 410 5850 323C5819 265 5799 170 5799 86C5799 21 5814 -11 5843 -11C5870 -11 5907 6 5941 33C5995 77 6028 116 6095 217L6072 126C6061 82 6056 50 6056 24C6056 3 6065 -9 6082 -9C6099 -9 6123 3 6157 28L6238 88L6228 107L6184 76C6170 66 6154 59 6145 59C6137 59 6131 68 6131 82C6131 90 6132 99 6139 128ZM5896 59C5880 59 5871 73 5871 98C5871 224 5917 380 5966 418C5979 428 5998 433 6025 433C6069 433 6098 427 6131 410L6119 351C6082 171 5941 59 5896 59ZM6547 152C6547 46 6592 -11 6675 -11C6730 -11 6790 15 6835 57C6897 116 6941 230 6941 331C6941 425 6891 482 6808 482C6704 482 6547 382 6547 152ZM6771 444C6832 444 6865 399 6865 315C6865 219 6834 113 6790 60C6772 39 6746 27 6715 27C6657 27 6623 72 6623 151C6623 264 6662 387 6711 427C6724 438 6747 444 6771 444ZM7318 437L7302 437L7323 549C7339 635 7367 673 7413 673C7443 673 7470 658 7485 634L7495 638C7500 654 7510 685 7518 705L7523 720C7507 727 7476 733 7453 733C7442 733 7426 730 7418 726C7394 715 7312 654 7289 630C7267 608 7255 578 7244 521L7229 442C7188 422 7168 414 7143 405L7138 383L7219 383L7210 327C7180 132 7143 -54 7121 -123C7103 -182 7073 -213 7037 -213C7014 -213 7003 -206 6985 -184L6971 -188C6967 -211 6953 -259 6948 -268C6957 -273 6972 -276 6983 -276C7024 -276 7078 -245 7117 -198C7188 -114 7208 -18 7292 383L7396 383C7400 402 7407 425 7413 439L7409 446C7380 439 7381 437 7318 437ZM7938 420C7959 420 7975 421 8001 424C7890 304 7848 221 7848 121C7848 44 7894 -11 7958 -11C8096 -11 8249 236 8249 384C8249 441 8223 482 8187 482C8174 482 8162 478 8154 470L8104 423L8115 404C8124 410 8133 413 8142 413C8169 413 8185 390 8185 350C8185 202 8088 39 8000 39C7951 39 7920 81 7920 146C7920 251 7959 342 8057 464L8047 482C8027 473 8014 470 7986 470C7958 470 7916 472 7887 475L7875 476C7869 477 7864 477 7863 477C7851 477 7842 475 7831 470C7817 443 7806 407 7793 352L7815 352L7832 394C7839 411 7859 422 7883 422C7916 422 7900 420 7938 420ZM8305 388L8312 368L8344 389C8381 412 8384 414 8391 414C8401 414 8409 404 8409 391C8409 384 8405 361 8401 347L8335 107C8327 76 8322 49 8322 30C8322 6 8333 -9 8352 -9C8378 -9 8414 12 8512 85L8502 103L8476 86C8447 67 8424 56 8415 56C8408 56 8402 66 8402 76C8402 86 8404 95 8409 116L8486 420C8490 437 8492 448 8492 456C8492 473 8483 482 8467 482C8445 482 8408 461 8333 408ZM8499 712C8470 712 8441 679 8441 645C8441 620 8456 604 8480 604C8511 604 8535 633 8535 671C8535 695 8520 712 8499 712ZM8876 111L8852 94C8799 56 8751 36 8715 36C8668 36 8639 73 8639 133C8639 158 8642 185 8647 214C8664 218 8773 248 8798 259C8883 296 8922 342 8922 404C8922 451 8888 482 8838 482C8770 496 8660 423 8623 349C8593 299 8563 180 8563 113C8563 35 8607 -11 8679 -11C8736 -11 8792 17 8884 92ZM8661 274C8678 343 8698 386 8727 412C8745 428 8776 440 8800 440C8829 440 8848 420 8848 388C8848 344 8813 297 8761 272C8733 258 8697 247 8652 237ZM9103 420C9124 420 9137 421 9162 424C9107 350 9008 266 9008 126C9008 44 9043 -11 9096 -11C9160 -11 9212 44 9286 187C9277 143 9274 118 9274 95C9274 32 9303 -11 9348 -11C9482 -11 9635 238 9635 384C9635 441 9609 482 9573 482C9560 482 9548 478 9540 470L9490 423L9501 404C9510 410 9519 413 9528 413C9555 413 9571 390 9571 350C9571 205 9474 39 9389 39C9360 39 9339 79 9339 134C9339 181 9348 247 9360 290L9412 474L9405 482L9331 460L9302 311C9290 249 9276 209 9247 155C9207 80 9169 39 9139 39C9104 39 9081 78 9081 136C9081 255 9122 352 9221 464L9211 482C9191 473 9178 470 9150 470C9122 470 9080 472 9051 475L9039 476C9033 477 9028 477 9027 477C9015 477 9006 475 8995 470C8981 443 8970 407 8957 352L8979 352L8996 394C9003 411 9023 422 9047 422C9081 422 9064 420 9103 420Z" stroke="rgb(0,0,0)" stroke-opacity="1" stroke-width="8" fill="rgb(0,0,0)" fill-opacity="1"></path></g></g><g><g transform="matrix(1,0,0,1,537.6484375,76.9453125)"><path transform="matrix(0.017,0,0,-0.017,0,0)" d="M204 123C177 114 159 108 106 93C99 17 74 -48 16 -144L30 -155L71 -136C152 -31 190 32 218 109Z" stroke="rgb(0,0,0)" stroke-opacity="1" stroke-width="8" fill="rgb(0,0,0)" fill-opacity="1"></path></g></g><g><g transform="matrix(1,0,0,1,545.28125,76.9453125)"><path transform="matrix(0.017,0,0,-0.017,0,0)" d="M374 390L318 107C317 99 305 61 305 31C305 6 316 -9 335 -9C370 -9 405 11 483 74L514 99L504 117L459 86C430 66 410 56 399 56C390 56 385 64 385 76C385 102 399 183 428 328L441 390L548 390L559 440C521 436 487 434 449 434C465 528 476 577 494 631L483 646C463 634 436 622 405 610L380 440C336 419 310 408 292 403L290 390ZM817 722L805 733C760 711 719 697 645 691L641 670L689 670C707 670 723 667 723 647C723 641 723 632 721 622L679 388C659 272 617 80 591 2L598 -9L667 7C675 64 689 164 729 236C774 317 877 414 919 414C930 414 941 407 941 393C941 375 936 342 926 303L875 107C869 85 862 55 862 31C862 6 872 -9 893 -9C925 -9 993 41 1052 85L1042 103L1016 86C993 71 967 56 955 56C948 56 942 65 942 76C942 88 945 101 949 116L1013 372C1019 398 1024 423 1024 447C1024 464 1018 482 992 482C957 482 880 437 812 374C779 343 753 308 725 273L721 275ZM1408 111L1384 94C1331 56 1283 36 1247 36C1200 36 1171 73 1171 133C1171 158 1174 185 1179 214C1196 218 1305 248 1330 259C1415 296 1454 342 1454 404C1454 451 1420 482 1370 482C1302 496 1192 423 1155 349C1125 299 1095 180 1095 113C1095 35 1139 -11 1211 -11C1268 -11 1324 17 1416 92ZM1193 274C1210 343 1230 386 1259 412C1277 428 1308 440 1332 440C1361 440 1380 420 1380 388C1380 344 1345 297 1293 272C1265 258 1229 247 1184 237ZM1988 204L1959 77C1955 60 1953 42 1953 26C1953 4 1962 -9 1977 -9C2000 -9 2041 17 2123 85L2116 106C2092 86 2063 59 2041 59C2032 59 2026 68 2026 82C2026 87 2026 90 2027 93L2119 472L2109 481L2076 463C2035 478 2018 482 1991 482C1963 482 1943 477 1916 464C1854 433 1821 403 1796 354C1752 265 1721 145 1721 67C1721 23 1736 -11 1755 -11C1792 -11 1872 41 1988 204ZM2036 414C2014 305 1995 253 1961 201C1904 117 1843 59 1811 59C1799 59 1793 72 1793 99C1793 163 1821 280 1856 360C1880 415 1903 433 1951 433C1974 433 1992 429 2036 414ZM2184 388L2191 368L2223 389C2260 412 2263 414 2270 414C2281 414 2288 404 2288 389C2288 338 2247 145 2206 2L2213 -9C2238 -2 2261 4 2283 8C2302 134 2323 199 2369 268C2423 352 2498 414 2543 414C2554 414 2560 405 2560 390C2560 372 2557 351 2549 319L2497 107C2488 70 2484 47 2484 31C2484 6 2495 -9 2514 -9C2540 -9 2576 12 2674 85L2664 103L2638 86C2609 67 2587 56 2577 56C2570 56 2564 65 2564 76C2564 81 2565 92 2566 96L2632 372C2639 401 2643 429 2643 446C2643 469 2632 482 2612 482C2570 482 2501 444 2442 389C2404 354 2376 320 2324 247L2362 408C2366 426 2368 438 2368 449C2368 470 2360 482 2345 482C2324 482 2285 460 2212 408ZM2990 482C2923 482 2770 419 2770 259C2770 182 2815 136 2892 136C2900 136 2911 136 2922 137L2881 99C2865 84 2854 66 2854 52C2854 42 2861 31 2875 19C2806 -4 2678 -48 2678 -159C2678 -230 2748 -276 2857 -276C2986 -276 3099 -204 3099 -121C3099 -85 3078 -49 3035 -14L2975 35C2941 62 2928 81 2928 100C2928 114 2943 128 2955 146C3053 170 3124 253 3124 342C3124 357 3121 376 3120 380C3137 378 3145 378 3154 378C3171 378 3181 379 3204 382L3213 427L3210 433C3182 426 3162 424 3108 424C3108 425 3084 482 2990 482ZM2891 1L2968 -58C3014 -94 3033 -121 3033 -154C3033 -206 2964 -248 2881 -248C2799 -248 2742 -206 2742 -145C2742 -43 2852 -11 2891 1ZM2965 448C3023 448 3052 412 3052 341C3052 238 3004 168 2934 168C2873 168 2841 209 2841 288C2841 383 2892 448 2965 448ZM3465 722L3453 733C3401 707 3365 698 3293 691L3289 670L3337 670C3361 670 3371 663 3371 648C3371 645 3371 640 3368 622C3357 567 3284 182 3269 132C3256 82 3250 52 3250 31C3250 6 3261 -9 3280 -9C3306 -9 3342 12 3440 85L3430 103L3404 86C3375 67 3353 56 3343 56C3336 56 3330 66 3330 76C3330 82 3331 89 3334 104ZM3819 111L3795 94C3742 56 3694 36 3658 36C3611 36 3582 73 3582 133C3582 158 3585 185 3590 214C3607 218 3716 248 3741 259C3826 296 3865 342 3865 404C3865 451 3831 482 3781 482C3713 496 3603 423 3566 349C3536 299 3506 180 3506 113C3506 35 3550 -11 3622 -11C3679 -11 3735 17 3827 92ZM3604 274C3621 343 3641 386 3670 412C3688 428 3719 440 3743 440C3772 440 3791 420 3791 388C3791 344 3756 297 3704 272C3676 258 3640 247 3595 237Z" stroke="rgb(0,0,0)" stroke-opacity="1" stroke-width="8" fill="rgb(0,0,0)" fill-opacity="1"></path></g></g></g><g><g><g transform="matrix(1,0,0,1,341.09375,97.34375)"><path transform="matrix(0.017,0,0,-0.017,0,0)" d="M125 390L69 107C68 99 56 61 56 31C56 6 67 -9 86 -9C121 -9 156 11 234 74L265 99L255 117L210 86C181 66 161 56 150 56C141 56 136 64 136 76C136 102 150 183 179 328L192 390L299 390L310 440C272 436 238 434 200 434C216 528 227 577 245 631L234 646C214 634 187 622 156 610L131 440C87 419 61 408 43 403L41 390ZM568 722L556 733C511 711 470 697 396 691L392 670L440 670C458 670 474 667 474 647C474 641 474 632 472 622L430 388C410 272 368 80 342 2L349 -9L418 7C426 64 440 164 480 236C525 317 628 414 670 414C681 414 692 407 692 393C692 375 687 342 677 303L626 107C620 85 613 55 613 31C613 6 623 -9 644 -9C676 -9 744 41 803 85L793 103L767 86C744 71 718 56 706 56C699 56 693 65 693 76C693 88 696 101 700 116L764 372C770 398 775 423 775 447C775 464 769 482 743 482C708 482 631 437 563 374C530 343 504 308 476 273L472 275ZM1159 111L1135 94C1082 56 1034 36 998 36C951 36 922 73 922 133C922 158 925 185 930 214C947 218 1056 248 1081 259C1166 296 1205 342 1205 404C1205 451 1171 482 1121 482C1053 496 943 423 906 349C876 299 846 180 846 113C846 35 890 -11 962 -11C1019 -11 1075 17 1167 92ZM944 274C961 343 981 386 1010 412C1028 428 1059 440 1083 440C1112 440 1131 420 1131 388C1131 344 1096 297 1044 272C1016 258 980 247 935 237ZM1344 390L1288 107C1287 99 1275 61 1275 31C1275 6 1286 -9 1305 -9C1340 -9 1375 11 1453 74L1484 99L1474 117L1429 86C1400 66 1380 56 1369 56C1360 56 1355 64 1355 76C1355 102 1369 183 1398 328L1411 390L1518 390L1529 440C1491 436 1457 434 1419 434C1435 528 1446 577 1464 631L1453 646C1433 634 1406 622 1375 610L1350 440C1306 419 1280 408 1262 403L1260 390ZM1822 204L1793 77C1789 60 1787 42 1787 26C1787 4 1796 -9 1811 -9C1834 -9 1875 17 1957 85L1950 106C1926 86 1897 59 1875 59C1866 59 1860 68 1860 82C1860 87 1860 90 1861 93L1953 472L1943 481L1910 463C1869 478 1852 482 1825 482C1797 482 1777 477 1750 464C1688 433 1655 403 1630 354C1586 265 1555 145 1555 67C1555 23 1570 -11 1589 -11C1626 -11 1706 41 1822 204ZM1870 414C1848 305 1829 253 1795 201C1738 117 1677 59 1645 59C1633 59 1627 72 1627 99C1627 163 1655 280 1690 360C1714 415 1737 433 1785 433C1808 433 1826 429 1870 414ZM2585 330L2608 330C2616 395 2623 432 2632 458C2608 473 2573 482 2536 482C2491 483 2418 463 2361 400C2307 352 2268 241 2268 136C2268 40 2310 -11 2390 -11C2444 -11 2492 9 2547 54L2597 95L2589 115L2574 105C2502 57 2464 40 2429 40C2373 40 2344 80 2344 159C2344 267 2379 371 2428 409C2449 425 2473 433 2504 433C2549 433 2585 414 2585 390ZM2666 152C2666 46 2711 -11 2794 -11C2849 -11 2909 15 2954 57C3016 116 3060 230 3060 331C3060 425 3010 482 2927 482C2823 482 2666 382 2666 152ZM2890 444C2951 444 2984 399 2984 315C2984 219 2953 113 2909 60C2891 39 2865 27 2834 27C2776 27 2742 72 2742 151C2742 264 2781 387 2830 427C2843 438 2866 444 2890 444ZM3116 388L3123 368L3155 389C3192 412 3195 414 3202 414C3213 414 3220 404 3220 389C3220 338 3179 145 3138 2L3145 -9C3170 -2 3193 4 3215 8C3234 134 3255 199 3301 268C3355 352 3430 414 3475 414C3486 414 3492 405 3492 390C3492 372 3489 351 3481 319L3429 107C3420 70 3416 47 3416 31C3416 6 3427 -9 3446 -9C3472 -9 3508 12 3606 85L3596 103L3570 86C3541 67 3519 56 3509 56C3502 56 3496 65 3496 76C3496 81 3497 92 3498 96L3564 372C3571 401 3575 429 3575 446C3575 469 3564 482 3544 482C3502 482 3433 444 3374 389C3336 354 3308 320 3256 247L3294 408C3298 426 3300 438 3300 449C3300 470 3292 482 3277 482C3256 482 3217 460 3144 408ZM3813 420C3834 420 3850 421 3876 424C3765 304 3723 221 3723 121C3723 44 3769 -11 3833 -11C3971 -11 4124 236 4124 384C4124 441 4098 482 4062 482C4049 482 4037 478 4029 470L3979 423L3990 404C3999 410 4008 413 4017 413C4044 413 4060 390 4060 350C4060 202 3963 39 3875 39C3826 39 3795 81 3795 146C3795 251 3834 342 3932 464L3922 482C3902 473 3889 470 3861 470C3833 470 3791 472 3762 475L3750 476C3744 477 3739 477 3738 477C3726 477 3717 475 3706 470C3692 443 3681 407 3668 352L3690 352L3707 394C3714 411 3734 422 3758 422C3791 422 3775 420 3813 420ZM4474 111L4450 94C4397 56 4349 36 4313 36C4266 36 4237 73 4237 133C4237 158 4240 185 4245 214C4262 218 4371 248 4396 259C4481 296 4520 342 4520 404C4520 451 4486 482 4436 482C4368 496 4258 423 4221 349C4191 299 4161 180 4161 113C4161 35 4205 -11 4277 -11C4334 -11 4390 17 4482 92ZM4259 274C4276 343 4296 386 4325 412C4343 428 4374 440 4398 440C4427 440 4446 420 4446 388C4446 344 4411 297 4359 272C4331 258 4295 247 4250 237ZM4902 365C4905 403 4910 435 4918 476C4907 481 4903 482 4898 482C4867 482 4836 458 4800 407C4761 351 4722 291 4706 256L4738 408C4742 425 4744 438 4744 450C4744 470 4736 482 4721 482C4700 482 4662 461 4588 408L4560 388L4567 368L4599 389C4627 407 4638 412 4647 412C4657 412 4664 403 4664 390C4664 332 4621 126 4581 -2L4591 -9C4606 -4 4622 -1 4645 4L4658 6L4684 126C4702 209 4725 262 4769 319C4803 363 4830 384 4852 384C4867 384 4877 379 4888 365ZM5047 390L4991 107C4990 99 4978 61 4978 31C4978 6 4989 -9 5008 -9C5043 -9 5078 11 5156 74L5187 99L5177 117L5132 86C5103 66 5083 56 5072 56C5063 56 5058 64 5058 76C5058 102 5072 183 5101 328L5114 390L5221 390L5232 440C5194 436 5160 434 5122 434C5138 528 5149 577 5167 631L5156 646C5136 634 5109 622 5078 610L5053 440C5009 419 4983 408 4965 403L4963 390ZM5582 111L5558 94C5505 56 5457 36 5421 36C5374 36 5345 73 5345 133C5345 158 5348 185 5353 214C5370 218 5479 248 5504 259C5589 296 5628 342 5628 404C5628 451 5594 482 5544 482C5476 496 5366 423 5329 349C5299 299 5269 180 5269 113C5269 35 5313 -11 5385 -11C5442 -11 5498 17 5590 92ZM5367 274C5384 343 5404 386 5433 412C5451 428 5482 440 5506 440C5535 440 5554 420 5554 388C5554 344 5519 297 5467 272C5439 258 5403 247 5358 237ZM6125 722L6113 733C6061 707 6025 698 5953 691L5949 670L5997 670C6021 670 6031 663 6031 646C6031 638 6030 629 6029 622L6001 468C5971 477 5944 482 5919 482C5850 482 5756 410 5710 323C5679 265 5659 170 5659 86C5659 21 5674 -11 5703 -11C5730 -11 5767 6 5801 33C5855 77 5888 116 5955 217L5932 126C5921 82 5916 50 5916 24C5916 3 5925 -9 5942 -9C5959 -9 5983 3 6017 28L6098 88L6088 107L6044 76C6030 66 6014 59 6005 59C5997 59 5991 68 5991 82C5991 90 5992 99 5999 128ZM5756 59C5740 59 5731 73 5731 98C5731 224 5777 380 5826 418C5839 428 5858 433 5885 433C5929 433 5958 427 5991 410L5979 351C5942 171 5801 59 5756 59ZM6515 390L6459 107C6458 99 6446 61 6446 31C6446 6 6457 -9 6476 -9C6511 -9 6546 11 6624 74L6655 99L6645 117L6600 86C6571 66 6551 56 6540 56C6531 56 6526 64 6526 76C6526 102 6540 183 6569 328L6582 390L6689 390L6700 440C6662 436 6628 434 6590 434C6606 528 6617 577 6635 631L6624 646C6604 634 6577 622 6546 610L6521 440C6477 419 6451 408 6433 403L6431 390ZM6739 152C6739 46 6784 -11 6867 -11C6922 -11 6982 15 7027 57C7089 116 7133 230 7133 331C7133 425 7083 482 7000 482C6896 482 6739 382 6739 152ZM6963 444C7024 444 7057 399 7057 315C7057 219 7026 113 6982 60C6964 39 6938 27 6907 27C6849 27 6815 72 6815 151C6815 264 6854 387 6903 427C6916 438 6939 444 6963 444ZM7665 722L7653 733C7601 707 7565 698 7493 691L7489 670L7537 670C7561 670 7571 663 7571 648C7571 645 7571 640 7568 622C7557 567 7484 182 7469 132C7456 82 7450 52 7450 31C7450 6 7461 -9 7480 -9C7506 -9 7542 12 7640 85L7630 103L7604 86C7575 67 7553 56 7543 56C7536 56 7530 66 7530 76C7530 82 7531 89 7534 104ZM7962 204L7933 77C7929 60 7927 42 7927 26C7927 4 7936 -9 7951 -9C7974 -9 8015 17 8097 85L8090 106C8066 86 8037 59 8015 59C8006 59 8000 68 8000 82C8000 87 8000 90 8001 93L8093 472L8083 481L8050 463C8009 478 7992 482 7965 482C7937 482 7917 477 7890 464C7828 433 7795 403 7770 354C7726 265 7695 145 7695 67C7695 23 7710 -11 7729 -11C7766 -11 7846 41 7962 204ZM8010 414C7988 305 7969 253 7935 201C7878 117 7817 59 7785 59C7773 59 7767 72 7767 99C7767 163 7795 280 7830 360C7854 415 7877 433 7925 433C7948 433 7966 429 8010 414ZM8259 390L8203 107C8202 99 8190 61 8190 31C8190 6 8201 -9 8220 -9C8255 -9 8290 11 8368 74L8399 99L8389 117L8344 86C8315 66 8295 56 8284 56C8275 56 8270 64 8270 76C8270 102 8284 183 8313 328L8326 390L8433 390L8444 440C8406 436 8372 434 8334 434C8350 528 8361 577 8379 631L8368 646C8348 634 8321 622 8290 610L8265 440C8221 419 8195 408 8177 403L8175 390ZM8500 388L8507 368L8539 389C8576 412 8579 414 8586 414C8596 414 8604 404 8604 391C8604 384 8600 361 8596 347L8530 107C8522 76 8517 49 8517 30C8517 6 8528 -9 8547 -9C8573 -9 8609 12 8707 85L8697 103L8671 86C8642 67 8619 56 8610 56C8603 56 8597 66 8597 76C8597 86 8599 95 8604 116L8681 420C8685 437 8687 448 8687 456C8687 473 8678 482 8662 482C8640 482 8603 461 8528 408ZM8694 712C8665 712 8636 679 8636 645C8636 620 8651 604 8675 604C8706 604 8730 633 8730 671C8730 695 8715 712 8694 712ZM8868 390L8812 107C8811 99 8799 61 8799 31C8799 6 8810 -9 8829 -9C8864 -9 8899 11 8977 74L9008 99L8998 117L8953 86C8924 66 8904 56 8893 56C8884 56 8879 64 8879 76C8879 102 8893 183 8922 328L8935 390L9042 390L9053 440C9015 436 8981 434 8943 434C8959 528 8970 577 8988 631L8977 646C8957 634 8930 622 8899 610L8874 440C8830 419 8804 408 8786 403L8784 390ZM9567 473L9560 482L9492 465L9482 414C9467 336 9442 268 9411 221C9352 130 9274 59 9234 59C9226 59 9221 68 9221 85C9221 99 9223 112 9228 137L9285 408C9288 424 9290 438 9290 451C9290 470 9281 482 9267 482C9247 482 9209 461 9135 408L9107 388L9114 368L9146 389C9174 407 9185 412 9194 412C9203 412 9211 403 9211 392C9211 388 9210 378 9209 374L9146 77C9144 68 9142 44 9142 30C9142 7 9157 -11 9177 -11C9240 -11 9361 101 9445 239L9408 97C9401 73 9397 46 9397 31C9397 6 9408 -9 9427 -9C9453 -9 9489 12 9587 85L9577 103L9551 86C9527 70 9501 59 9490 59C9482 59 9477 66 9477 76C9477 112 9552 416 9567 473ZM10113 722L10101 733C10049 707 10013 698 9941 691L9937 670L9985 670C10009 670 10019 663 10019 646C10019 638 10018 629 10017 622L9989 468C9959 477 9932 482 9907 482C9838 482 9744 410 9698 323C9667 265 9647 170 9647 86C9647 21 9662 -11 9691 -11C9718 -11 9755 6 9789 33C9843 77 9876 116 9943 217L9920 126C9909 82 9904 50 9904 24C9904 3 9913 -9 9930 -9C9947 -9 9971 3 10005 28L10086 88L10076 107L10032 76C10018 66 10002 59 9993 59C9985 59 9979 68 9979 82C9979 90 9980 99 9987 128ZM9744 59C9728 59 9719 73 9719 98C9719 224 9765 380 9814 418C9827 428 9846 433 9873 433C9917 433 9946 427 9979 410L9967 351C9930 171 9789 59 9744 59ZM10457 111L10433 94C10380 56 10332 36 10296 36C10249 36 10220 73 10220 133C10220 158 10223 185 10228 214C10245 218 10354 248 10379 259C10464 296 10503 342 10503 404C10503 451 10469 482 10419 482C10351 496 10241 423 10204 349C10174 299 10144 180 10144 113C10144 35 10188 -11 10260 -11C10317 -11 10373 17 10465 92ZM10242 274C10259 343 10279 386 10308 412C10326 428 10357 440 10381 440C10410 440 10429 420 10429 388C10429 344 10394 297 10342 272C10314 258 10278 247 10233 237Z" stroke="rgb(0,0,0)" stroke-opacity="1" stroke-width="8" fill="rgb(0,0,0)" fill-opacity="1"></path></g></g><g><g transform="matrix(1,0,0,1,523.28125,97.34375)"><path transform="matrix(0.017,0,0,-0.017,0,0)" d="M297 714L242 714L-37 -169L18 -169Z" stroke="rgb(0,0,0)" stroke-opacity="1" stroke-width="8" fill="rgb(0,0,0)" fill-opacity="1"></path></g></g><g><g transform="matrix(1,0,0,1,531.546875,97.34375)"><path transform="matrix(0.017,0,0,-0.017,0,0)" d="M251 722L239 733C187 707 151 698 79 691L75 670L123 670C147 670 157 663 157 648C157 645 157 640 154 622C143 567 70 182 55 132C42 82 36 52 36 31C36 6 47 -9 66 -9C92 -9 128 12 226 85L216 103L190 86C161 67 139 56 129 56C122 56 116 66 116 76C116 82 117 89 120 104ZM294 152C294 46 339 -11 422 -11C477 -11 537 15 582 57C644 116 688 230 688 331C688 425 638 482 555 482C451 482 294 382 294 152ZM518 444C579 444 612 399 612 315C612 219 581 113 537 60C519 39 493 27 462 27C404 27 370 72 370 151C370 264 409 387 458 427C471 438 494 444 518 444ZM744 388L751 368L783 389C820 412 823 414 830 414C841 414 848 404 848 389C848 338 807 145 766 2L773 -9C798 -2 821 4 843 8C862 134 883 199 929 268C983 352 1058 414 1103 414C1114 414 1120 405 1120 390C1120 372 1117 351 1109 319L1057 107C1048 70 1044 47 1044 31C1044 6 1055 -9 1074 -9C1100 -9 1136 12 1234 85L1224 103L1198 86C1169 67 1147 56 1137 56C1130 56 1124 65 1124 76C1124 81 1125 92 1126 96L1192 372C1199 401 1203 429 1203 446C1203 469 1192 482 1172 482C1130 482 1061 444 1002 389C964 354 936 320 884 247L922 408C926 426 928 438 928 449C928 470 920 482 905 482C884 482 845 460 772 408ZM1550 482C1483 482 1330 419 1330 259C1330 182 1375 136 1452 136C1460 136 1471 136 1482 137L1441 99C1425 84 1414 66 1414 52C1414 42 1421 31 1435 19C1366 -4 1238 -48 1238 -159C1238 -230 1308 -276 1417 -276C1546 -276 1659 -204 1659 -121C1659 -85 1638 -49 1595 -14L1535 35C1501 62 1488 81 1488 100C1488 114 1503 128 1515 146C1613 170 1684 253 1684 342C1684 357 1681 376 1680 380C1697 378 1705 378 1714 378C1731 378 1741 379 1764 382L1773 427L1770 433C1742 426 1722 424 1668 424C1668 425 1644 482 1550 482ZM1451 1L1528 -58C1574 -94 1593 -121 1593 -154C1593 -206 1524 -248 1441 -248C1359 -248 1302 -206 1302 -145C1302 -43 1412 -11 1451 1ZM1525 448C1583 448 1612 412 1612 341C1612 238 1564 168 1494 168C1433 168 1401 209 1401 288C1401 383 1452 448 1525 448ZM1808 388L1815 368L1847 389C1884 412 1887 414 1894 414C1904 414 1912 404 1912 391C1912 384 1908 361 1904 347L1838 107C1830 76 1825 49 1825 30C1825 6 1836 -9 1855 -9C1881 -9 1917 12 2015 85L2005 103L1979 86C1950 67 1927 56 1918 56C1911 56 1905 66 1905 76C1905 86 1907 95 1912 116L1989 420C1993 437 1995 448 1995 456C1995 473 1986 482 1970 482C1948 482 1911 461 1836 408ZM2002 712C1973 712 1944 679 1944 645C1944 620 1959 604 1983 604C2014 604 2038 633 2038 671C2038 695 2023 712 2002 712ZM2176 390L2120 107C2119 99 2107 61 2107 31C2107 6 2118 -9 2137 -9C2172 -9 2207 11 2285 74L2316 99L2306 117L2261 86C2232 66 2212 56 2201 56C2192 56 2187 64 2187 76C2187 102 2201 183 2230 328L2243 390L2350 390L2361 440C2323 436 2289 434 2251 434C2267 528 2278 577 2296 631L2285 646C2265 634 2238 622 2207 610L2182 440C2138 419 2112 408 2094 403L2092 390ZM2875 473L2868 482L2800 465L2790 414C2775 336 2750 268 2719 221C2660 130 2582 59 2542 59C2534 59 2529 68 2529 85C2529 99 2531 112 2536 137L2593 408C2596 424 2598 438 2598 451C2598 470 2589 482 2575 482C2555 482 2517 461 2443 408L2415 388L2422 368L2454 389C2482 407 2493 412 2502 412C2511 412 2519 403 2519 392C2519 388 2518 378 2517 374L2454 77C2452 68 2450 44 2450 30C2450 7 2465 -11 2485 -11C2548 -11 2669 101 2753 239L2716 97C2709 73 2705 46 2705 31C2705 6 2716 -9 2735 -9C2761 -9 2797 12 2895 85L2885 103L2859 86C2835 70 2809 59 2798 59C2790 59 2785 66 2785 76C2785 112 2860 416 2875 473ZM3421 722L3409 733C3357 707 3321 698 3249 691L3245 670L3293 670C3317 670 3327 663 3327 646C3327 638 3326 629 3325 622L3297 468C3267 477 3240 482 3215 482C3146 482 3052 410 3006 323C2975 265 2955 170 2955 86C2955 21 2970 -11 2999 -11C3026 -11 3063 6 3097 33C3151 77 3184 116 3251 217L3228 126C3217 82 3212 50 3212 24C3212 3 3221 -9 3238 -9C3255 -9 3279 3 3313 28L3394 88L3384 107L3340 76C3326 66 3310 59 3301 59C3293 59 3287 68 3287 82C3287 90 3288 99 3295 128ZM3052 59C3036 59 3027 73 3027 98C3027 224 3073 380 3122 418C3135 428 3154 433 3181 433C3225 433 3254 427 3287 410L3275 351C3238 171 3097 59 3052 59ZM3765 111L3741 94C3688 56 3640 36 3604 36C3557 36 3528 73 3528 133C3528 158 3531 185 3536 214C3553 218 3662 248 3687 259C3772 296 3811 342 3811 404C3811 451 3777 482 3727 482C3659 496 3549 423 3512 349C3482 299 3452 180 3452 113C3452 35 3496 -11 3568 -11C3625 -11 3681 17 3773 92ZM3550 274C3567 343 3587 386 3616 412C3634 428 3665 440 3689 440C3718 440 3737 420 3737 388C3737 344 3702 297 3650 272C3622 258 3586 247 3541 237Z" stroke="rgb(0,0,0)" stroke-opacity="1" stroke-width="8" fill="rgb(0,0,0)" fill-opacity="1"></path></g></g></g></g><g><g><g><g transform="matrix(1,0,0,1,112.09375,115.9453125)"><path transform="matrix(0.017,0,0,-0.017,0,0)" d="M368 365C371 403 376 435 384 476C373 481 369 482 364 482C333 482 302 458 266 407C227 351 188 291 172 256L204 408C208 425 210 438 210 450C210 470 202 482 187 482C166 482 128 461 54 408L26 388L33 368L65 389C93 407 104 412 113 412C123 412 130 403 130 390C130 332 87 126 47 -2L57 -9C72 -4 88 -1 111 4L124 6L150 126C168 209 191 262 235 319C269 363 296 384 318 384C333 384 343 379 354 365Z" stroke="rgb(0,0,0)" stroke-opacity="1" stroke-width="8" fill="rgb(0,0,0)" fill-opacity="1"></path></g></g></g></g><g><g><g><g transform="matrix(1,0,0,1,187.2890625,137.6484375)"><path transform="matrix(0.017,0,0,-0.017,0,0)" d="M146 266C146 526 243 632 301 700L282 726C225 675 60 542 60 266C60 159 85 58 133 -32C168 -99 200 -138 282 -215L301 -194C255 -137 146 -15 146 266Z" stroke="rgb(0,0,0)" stroke-opacity="1" stroke-width="8" fill="rgb(0,0,0)" fill-opacity="1"></path></g></g><g><g transform="matrix(1,0,0,1,192.9375,137.1484375)"><path transform="matrix(0.017,0,0,-0.017,0,0)" d="M9 1C24 -7 40 -11 52 -11C85 -11 124 18 155 65L231 182L242 113C255 28 278 -11 314 -11C336 -11 368 6 400 35L449 79L440 98C404 68 379 53 363 53C348 53 335 63 325 83C316 102 305 139 300 168L282 269L317 318C364 383 391 406 422 406C438 406 450 398 455 383L469 387L484 472C472 479 463 482 454 482C414 482 374 446 312 354L275 299L269 347C257 446 230 482 171 482C145 482 123 474 114 461L56 378L73 368C103 402 123 416 142 416C175 416 197 375 214 277L225 215L185 153C142 86 108 54 80 54C65 54 54 58 52 63L41 91L21 88C21 53 13 27 9 1Z" stroke="rgb(0,0,0)" stroke-opacity="1" stroke-width="8" fill="rgb(0,0,0)" fill-opacity="1"></path></g></g><g><g><g><g><g transform="matrix(1,0,0,1,201.9296875,140.65)"><path transform="matrix(0.0119,0,0,-0.0119,0,0)" d="M418 -3L418 27L366 30C311 33 301 44 301 96L301 700L60 598L67 548L217 614L217 96C217 44 206 33 152 30L96 27L96 -3C250 0 250 0 261 0C292 0 402 -3 418 -3Z" stroke="rgb(0,0,0)" stroke-opacity="1" stroke-width="8" fill="rgb(0,0,0)" fill-opacity="1"></path></g></g></g></g></g><g><g transform="matrix(1,0,0,1,208.890625,137.1484375)"><path transform="matrix(0.017,0,0,-0.017,0,0)" d="M204 123C177 114 159 108 106 93C99 17 74 -48 16 -144L30 -155L71 -136C152 -31 190 32 218 109Z" stroke="rgb(0,0,0)" stroke-opacity="1" stroke-width="8" fill="rgb(0,0,0)" fill-opacity="1"></path></g></g><g><g transform="matrix(1,0,0,1,216.5234375,137.1484375)"><path transform="matrix(0.017,0,0,-0.017,0,0)" d="M-7 -180C-8 -187 -8 -193 -8 -198C-8 -241 29 -276 74 -276C180 -276 290 -152 349 33L490 473L479 482C450 471 427 465 405 463L370 331C358 284 323 211 290 162C255 111 206 67 184 67C172 67 163 90 164 115L180 322C182 353 184 391 184 419C184 464 177 482 160 482C147 482 133 475 85 442L3 386L14 368L64 398C69 401 80 410 89 410C103 410 111 391 111 358C111 357 111 351 110 343L93 100L92 60C92 18 110 -11 135 -11C172 -11 256 74 331 187L282 16C231 -161 181 -234 111 -234C76 -234 49 -207 49 -172C49 -167 50 -159 51 -150L41 -146Z" stroke="rgb(0,0,0)" stroke-opacity="1" stroke-width="8" fill="rgb(0,0,0)" fill-opacity="1"></path></g></g><g><g><g><g><g transform="matrix(1,0,0,1,225.515625,140.65)"><path transform="matrix(0.0119,0,0,-0.0119,0,0)" d="M418 -3L418 27L366 30C311 33 301 44 301 96L301 700L60 598L67 548L217 614L217 96C217 44 206 33 152 30L96 27L96 -3C250 0 250 0 261 0C292 0 402 -3 418 -3Z" stroke="rgb(0,0,0)" stroke-opacity="1" stroke-width="8" fill="rgb(0,0,0)" fill-opacity="1"></path></g></g></g></g></g><g><g transform="matrix(1,0,0,1,232.4765625,137.6484375)"><path transform="matrix(0.017,0,0,-0.017,0,0)" d="M51 726L32 700C87 636 187 526 187 266C187 -10 83 -131 32 -194L51 -215C104 -165 273 -23 273 265C273 542 108 675 51 726Z" stroke="rgb(0,0,0)" stroke-opacity="1" stroke-width="8" fill="rgb(0,0,0)" fill-opacity="1"></path></g></g></g></g><g><g><g><g transform="matrix(1,0,0,1,337,129)"><path transform="matrix(0.017,0,0,-0.017,0,0)" d="M146 266C146 526 243 632 301 700L282 726C225 675 60 542 60 266C60 159 85 58 133 -32C168 -99 200 -138 282 -215L301 -194C255 -137 146 -15 146 266Z" stroke="rgb(0,0,0)" stroke-opacity="1" stroke-width="8" fill="rgb(0,0,0)" fill-opacity="1"></path></g></g><g><g transform="matrix(1,0,0,1,342.6484375,128.5)"><path transform="matrix(0.017,0,0,-0.017,0,0)" d="M9 1C24 -7 40 -11 52 -11C85 -11 124 18 155 65L231 182L242 113C255 28 278 -11 314 -11C336 -11 368 6 400 35L449 79L440 98C404 68 379 53 363 53C348 53 335 63 325 83C316 102 305 139 300 168L282 269L317 318C364 383 391 406 422 406C438 406 450 398 455 383L469 387L484 472C472 479 463 482 454 482C414 482 374 446 312 354L275 299L269 347C257 446 230 482 171 482C145 482 123 474 114 461L56 378L73 368C103 402 123 416 142 416C175 416 197 375 214 277L225 215L185 153C142 86 108 54 80 54C65 54 54 58 52 63L41 91L21 88C21 53 13 27 9 1Z" stroke="rgb(0,0,0)" stroke-opacity="1" stroke-width="8" fill="rgb(0,0,0)" fill-opacity="1"></path></g></g><g><g><g><g><g transform="matrix(1,0,0,1,351.640625,132.0015625)"><path transform="matrix(0.0119,0,0,-0.0119,0,0)" d="M418 -3L418 27L366 30C311 33 301 44 301 96L301 700L60 598L67 548L217 614L217 96C217 44 206 33 152 30L96 27L96 -3C250 0 250 0 261 0C292 0 402 -3 418 -3Z" stroke="rgb(0,0,0)" stroke-opacity="1" stroke-width="8" fill="rgb(0,0,0)" fill-opacity="1"></path></g></g></g></g></g><g><g transform="matrix(1,0,0,1,358.6015625,128.5)"><path transform="matrix(0.017,0,0,-0.017,0,0)" d="M204 123C177 114 159 108 106 93C99 17 74 -48 16 -144L30 -155L71 -136C152 -31 190 32 218 109Z" stroke="rgb(0,0,0)" stroke-opacity="1" stroke-width="8" fill="rgb(0,0,0)" fill-opacity="1"></path></g></g><g><g transform="matrix(1,0,0,1,366.234375,128.5)"><path transform="matrix(0.017,0,0,-0.017,0,0)" d="M-7 -180C-8 -187 -8 -193 -8 -198C-8 -241 29 -276 74 -276C180 -276 290 -152 349 33L490 473L479 482C450 471 427 465 405 463L370 331C358 284 323 211 290 162C255 111 206 67 184 67C172 67 163 90 164 115L180 322C182 353 184 391 184 419C184 464 177 482 160 482C147 482 133 475 85 442L3 386L14 368L64 398C69 401 80 410 89 410C103 410 111 391 111 358C111 357 111 351 110 343L93 100L92 60C92 18 110 -11 135 -11C172 -11 256 74 331 187L282 16C231 -161 181 -234 111 -234C76 -234 49 -207 49 -172C49 -167 50 -159 51 -150L41 -146Z" stroke="rgb(0,0,0)" stroke-opacity="1" stroke-width="8" fill="rgb(0,0,0)" fill-opacity="1"></path></g></g><g><g><g><g><g transform="matrix(1,0,0,1,375.2265625,132.0015625)"><path transform="matrix(0.0119,0,0,-0.0119,0,0)" d="M418 -3L418 27L366 30C311 33 301 44 301 96L301 700L60 598L67 548L217 614L217 96C217 44 206 33 152 30L96 27L96 -3C250 0 250 0 261 0C292 0 402 -3 418 -3Z" stroke="rgb(0,0,0)" stroke-opacity="1" stroke-width="8" fill="rgb(0,0,0)" fill-opacity="1"></path></g></g></g></g></g><g><g transform="matrix(1,0,0,1,382.1875,129)"><path transform="matrix(0.017,0,0,-0.017,0,0)" d="M51 726L32 700C87 636 187 526 187 266C187 -10 83 -131 32 -194L51 -215C104 -165 273 -23 273 265C273 542 108 675 51 726Z" stroke="rgb(0,0,0)" stroke-opacity="1" stroke-width="8" fill="rgb(0,0,0)" fill-opacity="1"></path></g></g><g><g transform="matrix(1,0,0,1,387.8359375,128.5)"><path transform="matrix(0.017,0,0,-0.017,0,0)" d="" stroke="rgb(0,0,0)" stroke-opacity="1" stroke-width="8" fill="rgb(0,0,0)" fill-opacity="1"></path></g></g><g><g transform="matrix(1,0,0,1,397.1640625,128.5)"><path transform="matrix(0.017,0,0,-0.017,0,0)" d="M604 347L604 406L65 406L65 347ZM604 134L604 193L65 193L65 134Z" stroke="rgb(0,0,0)" stroke-opacity="1" stroke-width="8" fill="rgb(0,0,0)" fill-opacity="1"></path></g></g><g><g transform="matrix(1,0,0,1,413.6171875,128.5)"><path transform="matrix(0.017,0,0,-0.017,0,0)" d="M598 664L601 692L487 689C471 689 453 689 410 690L346 692L343 664L390 662C414 661 425 653 425 635L330 55C326 37 314 30 270 23L265 -3L306 -2C337 -1 399 0 419 0C419 0 716 -1 716 -1C716 -1 749 0 749 0C748 25 759 103 772 165L741 165L724 103C715 71 706 54 697 49C684 44 620 39 553 39C504 39 477 40 411 46C414 64 505 605 505 613C512 651 519 658 556 661ZM1075 204L1046 77C1042 60 1040 42 1040 26C1040 4 1049 -9 1064 -9C1087 -9 1128 17 1210 85L1203 106C1179 86 1150 59 1128 59C1119 59 1113 68 1113 82C1113 87 1113 90 1114 93L1206 472L1196 481L1163 463C1122 478 1105 482 1078 482C1050 482 1030 477 1003 464C941 433 908 403 883 354C839 265 808 145 808 67C808 23 823 -11 842 -11C879 -11 959 41 1075 204ZM1123 414C1101 305 1082 253 1048 201C991 117 930 59 898 59C886 59 880 72 880 99C880 163 908 280 943 360C967 415 990 433 1038 433C1061 433 1079 429 1123 414ZM1372 390L1316 107C1315 99 1303 61 1303 31C1303 6 1314 -9 1333 -9C1368 -9 1403 11 1481 74L1512 99L1502 117L1457 86C1428 66 1408 56 1397 56C1388 56 1383 64 1383 76C1383 102 1397 183 1426 328L1439 390L1546 390L1557 440C1519 436 1485 434 1447 434C1463 528 1474 577 1492 631L1481 646C1461 634 1434 622 1403 610L1378 440C1334 419 1308 408 1290 403L1288 390ZM1613 388L1620 368L1652 389C1689 412 1692 414 1699 414C1709 414 1717 404 1717 391C1717 384 1713 361 1709 347L1643 107C1635 76 1630 49 1630 30C1630 6 1641 -9 1660 -9C1686 -9 1722 12 1820 85L1810 103L1784 86C1755 67 1732 56 1723 56C1716 56 1710 66 1710 76C1710 86 1712 95 1717 116L1794 420C1798 437 1800 448 1800 456C1800 473 1791 482 1775 482C1753 482 1716 461 1641 408ZM1807 712C1778 712 1749 679 1749 645C1749 620 1764 604 1788 604C1819 604 1843 633 1843 671C1843 695 1828 712 1807 712ZM1981 390L1925 107C1924 99 1912 61 1912 31C1912 6 1923 -9 1942 -9C1977 -9 2012 11 2090 74L2121 99L2111 117L2066 86C2037 66 2017 56 2006 56C1997 56 1992 64 1992 76C1992 102 2006 183 2035 328L2048 390L2155 390L2166 440C2128 436 2094 434 2056 434C2072 528 2083 577 2101 631L2090 646C2070 634 2043 622 2012 610L1987 440C1943 419 1917 408 1899 403L1897 390ZM2680 473L2673 482L2605 465L2595 414C2580 336 2555 268 2524 221C2465 130 2387 59 2347 59C2339 59 2334 68 2334 85C2334 99 2336 112 2341 137L2398 408C2401 424 2403 438 2403 451C2403 470 2394 482 2380 482C2360 482 2322 461 2248 408L2220 388L2227 368L2259 389C2287 407 2298 412 2307 412C2316 412 2324 403 2324 392C2324 388 2323 378 2322 374L2259 77C2257 68 2255 44 2255 30C2255 7 2270 -11 2290 -11C2353 -11 2474 101 2558 239L2521 97C2514 73 2510 46 2510 31C2510 6 2521 -9 2540 -9C2566 -9 2602 12 2700 85L2690 103L2664 86C2640 70 2614 59 2603 59C2595 59 2590 66 2590 76C2590 112 2665 416 2680 473ZM3226 722L3214 733C3162 707 3126 698 3054 691L3050 670L3098 670C3122 670 3132 663 3132 646C3132 638 3131 629 3130 622L3102 468C3072 477 3045 482 3020 482C2951 482 2857 410 2811 323C2780 265 2760 170 2760 86C2760 21 2775 -11 2804 -11C2831 -11 2868 6 2902 33C2956 77 2989 116 3056 217L3033 126C3022 82 3017 50 3017 24C3017 3 3026 -9 3043 -9C3060 -9 3084 3 3118 28L3199 88L3189 107L3145 76C3131 66 3115 59 3106 59C3098 59 3092 68 3092 82C3092 90 3093 99 3100 128ZM2857 59C2841 59 2832 73 2832 98C2832 224 2878 380 2927 418C2940 428 2959 433 2986 433C3030 433 3059 427 3092 410L3080 351C3043 171 2902 59 2857 59ZM3570 111L3546 94C3493 56 3445 36 3409 36C3362 36 3333 73 3333 133C3333 158 3336 185 3341 214C3358 218 3467 248 3492 259C3577 296 3616 342 3616 404C3616 451 3582 482 3532 482C3464 496 3354 423 3317 349C3287 299 3257 180 3257 113C3257 35 3301 -11 3373 -11C3430 -11 3486 17 3578 92ZM3355 274C3372 343 3392 386 3421 412C3439 428 3470 440 3494 440C3523 440 3542 420 3542 388C3542 344 3507 297 3455 272C3427 258 3391 247 3346 237ZM4150 204L4121 77C4117 60 4115 42 4115 26C4115 4 4124 -9 4139 -9C4162 -9 4203 17 4285 85L4278 106C4254 86 4225 59 4203 59C4194 59 4188 68 4188 82C4188 87 4188 90 4189 93L4281 472L4271 481L4238 463C4197 478 4180 482 4153 482C4125 482 4105 477 4078 464C4016 433 3983 403 3958 354C3914 265 3883 145 3883 67C3883 23 3898 -11 3917 -11C3954 -11 4034 41 4150 204ZM4198 414C4176 305 4157 253 4123 201C4066 117 4005 59 3973 59C3961 59 3955 72 3955 99C3955 163 3983 280 4018 360C4042 415 4065 433 4113 433C4136 433 4154 429 4198 414ZM4346 388L4353 368L4385 389C4422 412 4425 414 4432 414C4443 414 4450 404 4450 389C4450 338 4409 145 4368 2L4375 -9C4400 -2 4423 4 4445 8C4464 134 4485 199 4531 268C4585 352 4660 414 4705 414C4716 414 4722 405 4722 390C4722 372 4719 351 4711 319L4659 107C4650 70 4646 47 4646 31C4646 6 4657 -9 4676 -9C4702 -9 4738 12 4836 85L4826 103L4800 86C4771 67 4749 56 4739 56C4732 56 4726 65 4726 76C4726 81 4727 92 4728 96L4794 372C4801 401 4805 429 4805 446C4805 469 4794 482 4774 482C4732 482 4663 444 4604 389C4566 354 4538 320 4486 247L4524 408C4528 426 4530 438 4530 449C4530 470 4522 482 4507 482C4486 482 4447 460 4374 408ZM5360 722L5348 733C5296 707 5260 698 5188 691L5184 670L5232 670C5256 670 5266 663 5266 646C5266 638 5265 629 5264 622L5236 468C5206 477 5179 482 5154 482C5085 482 4991 410 4945 323C4914 265 4894 170 4894 86C4894 21 4909 -11 4938 -11C4965 -11 5002 6 5036 33C5090 77 5123 116 5190 217L5167 126C5156 82 5151 50 5151 24C5151 3 5160 -9 5177 -9C5194 -9 5218 3 5252 28L5333 88L5323 107L5279 76C5265 66 5249 59 5240 59C5232 59 5226 68 5226 82C5226 90 5227 99 5234 128ZM4991 59C4975 59 4966 73 4966 98C4966 224 5012 380 5061 418C5074 428 5093 433 5120 433C5164 433 5193 427 5226 410L5214 351C5177 171 5036 59 4991 59ZM5876 722L5864 733C5812 707 5776 698 5704 691L5700 670L5748 670C5772 670 5782 663 5782 648C5782 645 5782 640 5779 622C5768 567 5695 182 5680 132C5667 82 5661 52 5661 31C5661 6 5672 -9 5691 -9C5717 -9 5753 12 5851 85L5841 103L5815 86C5786 67 5764 56 5754 56C5747 56 5741 66 5741 76C5741 82 5742 89 5745 104ZM5919 152C5919 46 5964 -11 6047 -11C6102 -11 6162 15 6207 57C6269 116 6313 230 6313 331C6313 425 6263 482 6180 482C6076 482 5919 382 5919 152ZM6143 444C6204 444 6237 399 6237 315C6237 219 6206 113 6162 60C6144 39 6118 27 6087 27C6029 27 5995 72 5995 151C5995 264 6034 387 6083 427C6096 438 6119 444 6143 444ZM6369 388L6376 368L6408 389C6445 412 6448 414 6455 414C6466 414 6473 404 6473 389C6473 338 6432 145 6391 2L6398 -9C6423 -2 6446 4 6468 8C6487 134 6508 199 6554 268C6608 352 6683 414 6728 414C6739 414 6745 405 6745 390C6745 372 6742 351 6734 319L6682 107C6673 70 6669 47 6669 31C6669 6 6680 -9 6699 -9C6725 -9 6761 12 6859 85L6849 103L6823 86C6794 67 6772 56 6762 56C6755 56 6749 65 6749 76C6749 81 6750 92 6751 96L6817 372C6824 401 6828 429 6828 446C6828 469 6817 482 6797 482C6755 482 6686 444 6627 389C6589 354 6561 320 6509 247L6547 408C6551 426 6553 438 6553 449C6553 470 6545 482 6530 482C6509 482 6470 460 6397 408ZM7175 482C7108 482 6955 419 6955 259C6955 182 7000 136 7077 136C7085 136 7096 136 7107 137L7066 99C7050 84 7039 66 7039 52C7039 42 7046 31 7060 19C6991 -4 6863 -48 6863 -159C6863 -230 6933 -276 7042 -276C7171 -276 7284 -204 7284 -121C7284 -85 7263 -49 7220 -14L7160 35C7126 62 7113 81 7113 100C7113 114 7128 128 7140 146C7238 170 7309 253 7309 342C7309 357 7306 376 7305 380C7322 378 7330 378 7339 378C7356 378 7366 379 7389 382L7398 427L7395 433C7367 426 7347 424 7293 424C7293 425 7269 482 7175 482ZM7076 1L7153 -58C7199 -94 7218 -121 7218 -154C7218 -206 7149 -248 7066 -248C6984 -248 6927 -206 6927 -145C6927 -43 7037 -11 7076 1ZM7150 448C7208 448 7237 412 7237 341C7237 238 7189 168 7119 168C7058 168 7026 209 7026 288C7026 383 7077 448 7150 448ZM7433 388L7440 368L7472 389C7509 412 7512 414 7519 414C7529 414 7537 404 7537 391C7537 384 7533 361 7529 347L7463 107C7455 76 7450 49 7450 30C7450 6 7461 -9 7480 -9C7506 -9 7542 12 7640 85L7630 103L7604 86C7575 67 7552 56 7543 56C7536 56 7530 66 7530 76C7530 86 7532 95 7537 116L7614 420C7618 437 7620 448 7620 456C7620 473 7611 482 7595 482C7573 482 7536 461 7461 408ZM7627 712C7598 712 7569 679 7569 645C7569 620 7584 604 7608 604C7639 604 7663 633 7663 671C7663 695 7648 712 7627 712ZM7801 390L7745 107C7744 99 7732 61 7732 31C7732 6 7743 -9 7762 -9C7797 -9 7832 11 7910 74L7941 99L7931 117L7886 86C7857 66 7837 56 7826 56C7817 56 7812 64 7812 76C7812 102 7826 183 7855 328L7868 390L7975 390L7986 440C7948 436 7914 434 7876 434C7892 528 7903 577 7921 631L7910 646C7890 634 7863 622 7832 610L7807 440C7763 419 7737 408 7719 403L7717 390ZM8500 473L8493 482L8425 465L8415 414C8400 336 8375 268 8344 221C8285 130 8207 59 8167 59C8159 59 8154 68 8154 85C8154 99 8156 112 8161 137L8218 408C8221 424 8223 438 8223 451C8223 470 8214 482 8200 482C8180 482 8142 461 8068 408L8040 388L8047 368L8079 389C8107 407 8118 412 8127 412C8136 412 8144 403 8144 392C8144 388 8143 378 8142 374L8079 77C8077 68 8075 44 8075 30C8075 7 8090 -11 8110 -11C8173 -11 8294 101 8378 239L8341 97C8334 73 8330 46 8330 31C8330 6 8341 -9 8360 -9C8386 -9 8422 12 8520 85L8510 103L8484 86C8460 70 8434 59 8423 59C8415 59 8410 66 8410 76C8410 112 8485 416 8500 473ZM9046 722L9034 733C8982 707 8946 698 8874 691L8870 670L8918 670C8942 670 8952 663 8952 646C8952 638 8951 629 8950 622L8922 468C8892 477 8865 482 8840 482C8771 482 8677 410 8631 323C8600 265 8580 170 8580 86C8580 21 8595 -11 8624 -11C8651 -11 8688 6 8722 33C8776 77 8809 116 8876 217L8853 126C8842 82 8837 50 8837 24C8837 3 8846 -9 8863 -9C8880 -9 8904 3 8938 28L9019 88L9009 107L8965 76C8951 66 8935 59 8926 59C8918 59 8912 68 8912 82C8912 90 8913 99 8920 128ZM8677 59C8661 59 8652 73 8652 98C8652 224 8698 380 8747 418C8760 428 8779 433 8806 433C8850 433 8879 427 8912 410L8900 351C8863 171 8722 59 8677 59ZM9390 111L9366 94C9313 56 9265 36 9229 36C9182 36 9153 73 9153 133C9153 158 9156 185 9161 214C9178 218 9287 248 9312 259C9397 296 9436 342 9436 404C9436 451 9402 482 9352 482C9284 496 9174 423 9137 349C9107 299 9077 180 9077 113C9077 35 9121 -11 9193 -11C9250 -11 9306 17 9398 92ZM9175 274C9192 343 9212 386 9241 412C9259 428 9290 440 9314 440C9343 440 9362 420 9362 388C9362 344 9327 297 9275 272C9247 258 9211 247 9166 237ZM9716 152C9716 46 9761 -11 9844 -11C9899 -11 9959 15 10004 57C10066 116 10110 230 10110 331C10110 425 10060 482 9977 482C9873 482 9716 382 9716 152ZM9940 444C10001 444 10034 399 10034 315C10034 219 10003 113 9959 60C9941 39 9915 27 9884 27C9826 27 9792 72 9792 151C9792 264 9831 387 9880 427C9893 438 9916 444 9940 444ZM10487 437L10471 437L10492 549C10508 635 10536 673 10582 673C10612 673 10639 658 10654 634L10664 638C10669 654 10679 685 10687 705L10692 720C10676 727 10645 733 10622 733C10611 733 10595 730 10587 726C10563 715 10481 654 10458 630C10436 608 10424 578 10413 521L10398 442C10357 422 10337 414 10312 405L10307 383L10388 383L10379 327C10349 132 10312 -54 10290 -123C10272 -182 10242 -213 10206 -213C10183 -213 10172 -206 10154 -184L10140 -188C10136 -211 10122 -259 10117 -268C10126 -273 10141 -276 10152 -276C10193 -276 10247 -245 10286 -198C10357 -114 10377 -18 10461 383L10565 383C10569 402 10576 425 10582 439L10578 446C10549 439 10550 437 10487 437ZM11066 390L11010 107C11009 99 10997 61 10997 31C10997 6 11008 -9 11027 -9C11062 -9 11097 11 11175 74L11206 99L11196 117L11151 86C11122 66 11102 56 11091 56C11082 56 11077 64 11077 76C11077 102 11091 183 11120 328L11133 390L11240 390L11251 440C11213 436 11179 434 11141 434C11157 528 11168 577 11186 631L11175 646C11155 634 11128 622 11097 610L11072 440C11028 419 11002 408 10984 403L10982 390ZM11509 722L11497 733C11452 711 11411 697 11337 691L11333 670L11381 670C11399 670 11415 667 11415 647C11415 641 11415 632 11413 622L11371 388C11351 272 11309 80 11283 2L11290 -9L11359 7C11367 64 11381 164 11421 236C11466 317 11569 414 11611 414C11622 414 11633 407 11633 393C11633 375 11628 342 11618 303L11567 107C11561 85 11554 55 11554 31C11554 6 11564 -9 11585 -9C11617 -9 11685 41 11744 85L11734 103L11708 86C11685 71 11659 56 11647 56C11640 56 11634 65 11634 76C11634 88 11637 101 11641 116L11705 372C11711 398 11716 423 11716 447C11716 464 11710 482 11684 482C11649 482 11572 437 11504 374C11471 343 11445 308 11417 273L11413 275ZM12100 111L12076 94C12023 56 11975 36 11939 36C11892 36 11863 73 11863 133C11863 158 11866 185 11871 214C11888 218 11997 248 12022 259C12107 296 12146 342 12146 404C12146 451 12112 482 12062 482C11994 496 11884 423 11847 349C11817 299 11787 180 11787 113C11787 35 11831 -11 11903 -11C11960 -11 12016 17 12108 92ZM11885 274C11902 343 11922 386 11951 412C11969 428 12000 440 12024 440C12053 440 12072 420 12072 388C12072 344 12037 297 11985 272C11957 258 11921 247 11876 237Z" stroke="rgb(0,0,0)" stroke-opacity="1" stroke-width="8" fill="rgb(0,0,0)" fill-opacity="1"></path></g></g></g><g><g><g transform="matrix(1,0,0,1,337,150.875)"><path transform="matrix(0.017,0,0,-0.017,0,0)" d="M103 664L150 662C174 661 185 653 185 636C185 629 179 576 176 559L104 125C89 36 86 31 46 28L10 25L7 -3L39 -3L133 0L227 -3L259 -3L262 25L210 28C184 30 174 37 174 57C174 63 175 74 176 78L265 613C272 652 277 657 316 661L351 664L354 692L248 689C231 689 213 689 170 690L106 692ZM440 471C440 386 478 339 562 319L657 296C711 283 738 248 738 191C738 96 667 30 564 30C510 30 472 42 428 73L428 172L398 172C392 117 385 72 374 20C423 -5 476 -18 529 -18C684 -18 817 99 817 234C817 313 774 355 673 377L608 391C542 405 512 442 512 508C512 595 579 658 671 658C720 658 753 645 783 613L783 537L813 537C817 591 824 629 838 672C793 696 753 706 706 706C582 706 440 614 440 471ZM995 471C995 386 1033 339 1117 319L1212 296C1266 283 1293 248 1293 191C1293 96 1222 30 1119 30C1065 30 1027 42 983 73L983 172L953 172C947 117 940 72 929 20C978 -5 1031 -18 1084 -18C1239 -18 1372 99 1372 234C1372 313 1329 355 1228 377L1163 391C1097 405 1067 442 1067 508C1067 595 1134 658 1226 658C1275 658 1308 645 1338 613L1338 537L1368 537C1372 591 1379 629 1393 672C1348 696 1308 706 1261 706C1137 706 995 614 995 471Z" stroke="rgb(0,0,0)" stroke-opacity="1" stroke-width="8" fill="rgb(0,0,0)" fill-opacity="1"></path></g></g></g></g><g><g><g><text x="338" y="171" style="white-space:pre;stroke:none;fill:rgb(0,0,0);fill-opacity:1;font-size:15px;font-family:Arial, Helvetica, sans-serif;font-weight:400;font-style:normal;dominant-baseline:text-before-edge;text-decoration:none solid rgb(0, 0, 0);">If ISS is visible, then it will be within the field</text></g></g><g><g><text x="338" y="192" style="white-space:pre;stroke:none;fill:rgb(0,0,0);fill-opacity:1;font-size:15px;font-family:Arial, Helvetica, sans-serif;font-weight:400;font-style:normal;dominant-baseline:text-before-edge;text-decoration:none solid rgb(0, 0, 0);">of view. In other words, </text></g></g></g><g><g><g><g transform="matrix(1,0,0,1,338,232.59375)"><path transform="matrix(0.017,0,0,-0.017,0,0)" d="M146 266C146 526 243 632 301 700L282 726C225 675 60 542 60 266C60 159 85 58 133 -32C168 -99 200 -138 282 -215L301 -194C255 -137 146 -15 146 266Z" stroke="rgb(0,0,0)" stroke-opacity="1" stroke-width="8" fill="rgb(0,0,0)" fill-opacity="1"></path></g></g><g><g transform="matrix(1,0,0,1,343.6484375,232.09375)"><path transform="matrix(0.017,0,0,-0.017,0,0)" d="M9 1C24 -7 40 -11 52 -11C85 -11 124 18 155 65L231 182L242 113C255 28 278 -11 314 -11C336 -11 368 6 400 35L449 79L440 98C404 68 379 53 363 53C348 53 335 63 325 83C316 102 305 139 300 168L282 269L317 318C364 383 391 406 422 406C438 406 450 398 455 383L469 387L484 472C472 479 463 482 454 482C414 482 374 446 312 354L275 299L269 347C257 446 230 482 171 482C145 482 123 474 114 461L56 378L73 368C103 402 123 416 142 416C175 416 197 375 214 277L225 215L185 153C142 86 108 54 80 54C65 54 54 58 52 63L41 91L21 88C21 53 13 27 9 1Z" stroke="rgb(0,0,0)" stroke-opacity="1" stroke-width="8" fill="rgb(0,0,0)" fill-opacity="1"></path></g></g><g><g transform="matrix(1,0,0,1,355.53125,232.09375)"><path transform="matrix(0.017,0,0,-0.017,0,0)" d="M555 243L555 299L51 299L51 243Z" stroke="rgb(0,0,0)" stroke-opacity="1" stroke-width="8" fill="rgb(0,0,0)" fill-opacity="1"></path></g></g><g><g transform="matrix(1,0,0,1,369.21875,232.09375)"><path transform="matrix(0.017,0,0,-0.017,0,0)" d="M9 1C24 -7 40 -11 52 -11C85 -11 124 18 155 65L231 182L242 113C255 28 278 -11 314 -11C336 -11 368 6 400 35L449 79L440 98C404 68 379 53 363 53C348 53 335 63 325 83C316 102 305 139 300 168L282 269L317 318C364 383 391 406 422 406C438 406 450 398 455 383L469 387L484 472C472 479 463 482 454 482C414 482 374 446 312 354L275 299L269 347C257 446 230 482 171 482C145 482 123 474 114 461L56 378L73 368C103 402 123 416 142 416C175 416 197 375 214 277L225 215L185 153C142 86 108 54 80 54C65 54 54 58 52 63L41 91L21 88C21 53 13 27 9 1Z" stroke="rgb(0,0,0)" stroke-opacity="1" stroke-width="8" fill="rgb(0,0,0)" fill-opacity="1"></path></g></g><g><g><g><g><g transform="matrix(1,0,0,1,378.2109375,235.5953125)"><path transform="matrix(0.0119,0,0,-0.0119,0,0)" d="M418 -3L418 27L366 30C311 33 301 44 301 96L301 700L60 598L67 548L217 614L217 96C217 44 206 33 152 30L96 27L96 -3C250 0 250 0 261 0C292 0 402 -3 418 -3Z" stroke="rgb(0,0,0)" stroke-opacity="1" stroke-width="8" fill="rgb(0,0,0)" fill-opacity="1"></path></g></g></g></g></g><g><g transform="matrix(1,0,0,1,385.171875,232.59375)"><path transform="matrix(0.017,0,0,-0.017,0,0)" d="M51 726L32 700C87 636 187 526 187 266C187 -10 83 -131 32 -194L51 -215C104 -165 273 -23 273 265C273 542 108 675 51 726Z" stroke="rgb(0,0,0)" stroke-opacity="1" stroke-width="8" fill="rgb(0,0,0)" fill-opacity="1"></path></g></g><g><g><g><g><g transform="matrix(1,0,0,1,391.796875,225.9)"><path transform="matrix(0.0119,0,0,-0.0119,0,0)" d="M16 23L16 -3C203 -3 203 0 239 0C275 0 275 -3 468 -3L468 82C353 77 307 81 122 77L304 270C401 373 431 428 431 503C431 618 353 689 226 689C154 689 105 669 56 619L39 483L68 483L81 529C97 587 133 612 200 612C286 612 341 558 341 473C341 398 299 324 186 204Z" stroke="rgb(0,0,0)" stroke-opacity="1" stroke-width="8" fill="rgb(0,0,0)" fill-opacity="1"></path></g></g></g></g></g><g><g transform="matrix(1,0,0,1,402.15625,232.09375)"><path transform="matrix(0.017,0,0,-0.017,0,0)" d="M604 241L604 300L364 300L364 538L305 538L305 300L65 300L65 241L305 241L305 0L364 0L364 241Z" stroke="rgb(0,0,0)" stroke-opacity="1" stroke-width="8" fill="rgb(0,0,0)" fill-opacity="1"></path></g></g><g><g transform="matrix(1,0,0,1,416.9140625,232.59375)"><path transform="matrix(0.017,0,0,-0.017,0,0)" d="M146 266C146 526 243 632 301 700L282 726C225 675 60 542 60 266C60 159 85 58 133 -32C168 -99 200 -138 282 -215L301 -194C255 -137 146 -15 146 266Z" stroke="rgb(0,0,0)" stroke-opacity="1" stroke-width="8" fill="rgb(0,0,0)" fill-opacity="1"></path></g></g><g><g transform="matrix(1,0,0,1,422.5625,232.09375)"><path transform="matrix(0.017,0,0,-0.017,0,0)" d="M-7 -180C-8 -187 -8 -193 -8 -198C-8 -241 29 -276 74 -276C180 -276 290 -152 349 33L490 473L479 482C450 471 427 465 405 463L370 331C358 284 323 211 290 162C255 111 206 67 184 67C172 67 163 90 164 115L180 322C182 353 184 391 184 419C184 464 177 482 160 482C147 482 133 475 85 442L3 386L14 368L64 398C69 401 80 410 89 410C103 410 111 391 111 358C111 357 111 351 110 343L93 100L92 60C92 18 110 -11 135 -11C172 -11 256 74 331 187L282 16C231 -161 181 -234 111 -234C76 -234 49 -207 49 -172C49 -167 50 -159 51 -150L41 -146Z" stroke="rgb(0,0,0)" stroke-opacity="1" stroke-width="8" fill="rgb(0,0,0)" fill-opacity="1"></path></g></g><g><g transform="matrix(1,0,0,1,434.4453125,232.09375)"><path transform="matrix(0.017,0,0,-0.017,0,0)" d="M555 243L555 299L51 299L51 243Z" stroke="rgb(0,0,0)" stroke-opacity="1" stroke-width="8" fill="rgb(0,0,0)" fill-opacity="1"></path></g></g><g><g transform="matrix(1,0,0,1,448.1328125,232.09375)"><path transform="matrix(0.017,0,0,-0.017,0,0)" d="M-7 -180C-8 -187 -8 -193 -8 -198C-8 -241 29 -276 74 -276C180 -276 290 -152 349 33L490 473L479 482C450 471 427 465 405 463L370 331C358 284 323 211 290 162C255 111 206 67 184 67C172 67 163 90 164 115L180 322C182 353 184 391 184 419C184 464 177 482 160 482C147 482 133 475 85 442L3 386L14 368L64 398C69 401 80 410 89 410C103 410 111 391 111 358C111 357 111 351 110 343L93 100L92 60C92 18 110 -11 135 -11C172 -11 256 74 331 187L282 16C231 -161 181 -234 111 -234C76 -234 49 -207 49 -172C49 -167 50 -159 51 -150L41 -146Z" stroke="rgb(0,0,0)" stroke-opacity="1" stroke-width="8" fill="rgb(0,0,0)" fill-opacity="1"></path></g></g><g><g><g><g><g transform="matrix(1,0,0,1,457.125,235.5953125)"><path transform="matrix(0.0119,0,0,-0.0119,0,0)" d="M418 -3L418 27L366 30C311 33 301 44 301 96L301 700L60 598L67 548L217 614L217 96C217 44 206 33 152 30L96 27L96 -3C250 0 250 0 261 0C292 0 402 -3 418 -3Z" stroke="rgb(0,0,0)" stroke-opacity="1" stroke-width="8" fill="rgb(0,0,0)" fill-opacity="1"></path></g></g></g></g></g><g><g transform="matrix(1,0,0,1,464.0859375,232.59375)"><path transform="matrix(0.017,0,0,-0.017,0,0)" d="M51 726L32 700C87 636 187 526 187 266C187 -10 83 -131 32 -194L51 -215C104 -165 273 -23 273 265C273 542 108 675 51 726Z" stroke="rgb(0,0,0)" stroke-opacity="1" stroke-width="8" fill="rgb(0,0,0)" fill-opacity="1"></path></g></g><g><g><g><g><g transform="matrix(1,0,0,1,470.7109375,225.9)"><path transform="matrix(0.0119,0,0,-0.0119,0,0)" d="M16 23L16 -3C203 -3 203 0 239 0C275 0 275 -3 468 -3L468 82C353 77 307 81 122 77L304 270C401 373 431 428 431 503C431 618 353 689 226 689C154 689 105 669 56 619L39 483L68 483L81 529C97 587 133 612 200 612C286 612 341 558 341 473C341 398 299 324 186 204Z" stroke="rgb(0,0,0)" stroke-opacity="1" stroke-width="8" fill="rgb(0,0,0)" fill-opacity="1"></path></g></g></g></g></g><g><g transform="matrix(1,0,0,1,482.765625,232.09375)"><path transform="matrix(0.017,0,0,-0.017,0,0)" d="M604 -15L604 -74L65 181L65 240ZM604 615L604 555L166 349L604 144L604 85L65 340L65 361Z" stroke="rgb(0,0,0)" stroke-opacity="1" stroke-width="8" fill="rgb(0,0,0)" fill-opacity="1"></path></g></g><g><g transform="matrix(1,0,0,1,499.21875,232.09375)"><path transform="matrix(0.017,0,0,-0.017,0,0)" d="M368 365C371 403 376 435 384 476C373 481 369 482 364 482C333 482 302 458 266 407C227 351 188 291 172 256L204 408C208 425 210 438 210 450C210 470 202 482 187 482C166 482 128 461 54 408L26 388L33 368L65 389C93 407 104 412 113 412C123 412 130 403 130 390C130 332 87 126 47 -2L57 -9C72 -4 88 -1 111 4L124 6L150 126C168 209 191 262 235 319C269 363 296 384 318 384C333 384 343 379 354 365Z" stroke="rgb(0,0,0)" stroke-opacity="1" stroke-width="8" fill="rgb(0,0,0)" fill-opacity="1"></path></g></g><g><g><g><g><g transform="matrix(1,0,0,1,506.796875,225.9)"><path transform="matrix(0.0119,0,0,-0.0119,0,0)" d="M16 23L16 -3C203 -3 203 0 239 0C275 0 275 -3 468 -3L468 82C353 77 307 81 122 77L304 270C401 373 431 428 431 503C431 618 353 689 226 689C154 689 105 669 56 619L39 483L68 483L81 529C97 587 133 612 200 612C286 612 341 558 341 473C341 398 299 324 186 204Z" stroke="rgb(0,0,0)" stroke-opacity="1" stroke-width="8" fill="rgb(0,0,0)" fill-opacity="1"></path></g></g></g></g></g></g></g></svg>
</svg>
