<svg xmlns="http://www.w3.org/2000/svg" xmlns:xlink="http://www.w3.org/1999/xlink" x="0" y="0" width="662" height="401" style="
        width:662px;
        height:401px;
        background: #FFF;
        fill: none;
">
        <svg xmlns="http://www.w3.org/2000/svg"/>
        
        <svg xmlns="http://www.w3.org/2000/svg" class="role-diagram-draw-area"><g class="shapes-region" style="stroke: black; fill: none;"><g class="composite-shape"><path class="real" d=" M75.2,163.9 C75.2,120.33 110.52,85 154.1,85 C197.67,85 233,120.33 233,163.9 C233,207.48 197.67,242.8 154.1,242.8 C110.52,242.8 75.2,207.48 75.2,163.9 Z" style="stroke-width: 4; stroke: rgb(14, 11, 169); fill: rgb(74, 144, 226); fill-opacity: 0.38; stroke-opacity: 1;"/></g><g class="composite-shape"><path class="real" d=" M39.2,163.9 C39.2,100.44 90.64,49 154.1,49 C217.56,49 269,100.44 269,163.9 C269,227.36 217.56,278.8 154.1,278.8 C90.64,278.8 39.2,227.36 39.2,163.9 Z" style="stroke-width: 2; stroke: rgb(155, 155, 155); stroke-opacity: 1; fill: none; fill-opacity: 1;"/></g><g class="arrow-line"><path class="connection real" stroke-dasharray="" d="  M70,83.3 L154.1,164.9" style="stroke: rgb(0, 0, 0); stroke-width: 2; fill: none; fill-opacity: 1;"/></g><g class="arrow-line"><path class="connection real" stroke-dasharray="" d="  M154.1,164.9 L154.1,86" style="stroke: rgb(0, 0, 0); stroke-width: 2; fill: none; fill-opacity: 1;"/></g><g class="arrow-line"><path class="connection real" stroke-dasharray="" d="  M70,83.3 L95,107.3" style="stroke: rgb(208, 2, 27); stroke-width: 2; fill: none; fill-opacity: 1; stroke-opacity: 1;"/></g><g class="arrow-line"><path class="connection real" stroke-dasharray="" d="  M12.75,84.55 L306.75,83.55" style="stroke: rgb(65, 117, 5); stroke-opacity: 1; stroke-width: 2; fill: none; fill-opacity: 1;"/></g><g class="composite-shape"><path class="real" d=" M141.2,85 L154,85 L154,97.8 L141.2,97.8 Z" style="stroke-width: 2; stroke: rgb(0, 0, 0); fill: none; fill-opacity: 1;"/></g><g class="arrow-line"><path class="connection real" stroke-dasharray="" d="  M154.1,164.9 L236,83.8" style="stroke: rgb(0, 0, 0); stroke-width: 2; fill: none; fill-opacity: 1;"/></g><g class="composite-shape"><path class="real" d=" M145.57,164.2 C145.4,159.48 149.09,155.53 153.8,155.37 C158.52,155.21 162.47,158.9 162.63,163.61 C162.79,168.32 159.1,172.27 154.39,172.43 C149.68,172.6 145.73,168.91 145.57,164.2 Z" style="stroke-width: 1; stroke: rgb(0, 0, 0); fill: rgb(0, 0, 0); fill-opacity: 1;"/></g><g class="composite-shape"><path class="real" d=" M154.2,85 L167,85 L167,97.8 L154.2,97.8 Z" style="stroke-width: 2; stroke: rgb(0, 0, 0); fill: none; fill-opacity: 1;"/></g><g class="arrow-line"><path class="connection real" stroke-dasharray="" d="  M212,107.8 L236,83.8" style="stroke: rgb(208, 2, 27); stroke-opacity: 1; stroke-width: 2; fill: none; fill-opacity: 1;"/></g><g class="composite-shape"><path class="real" d=" M358,82 L428,185 L358,185 Z" style="stroke-width: 2; stroke: rgb(0, 0, 0); fill: none; fill-opacity: 1;"/></g><g class="composite-shape"><path class="real" d=" M358,172.2 L370.8,172.2 L370.8,185 L358,185 Z" style="stroke-width: 2; stroke: rgb(0, 0, 0); fill: none; fill-opacity: 1;"/></g><g class="composite-shape"><path class="real" d=" M28,305.5 C28,297.49 34.49,291 42.5,291 C50.51,291 57,297.49 57,305.5 C57,313.51 50.51,320 42.5,320 C34.49,320 28,313.51 28,305.5 Z" style="stroke-width: 4; stroke: rgb(14, 11, 169); stroke-opacity: 1; fill: rgb(74, 144, 226); fill-opacity: 0.38;"/></g><g class="composite-shape"><path class="real" d=" M28,343.5 C28,334.94 34.94,328 43.5,328 C52.06,328 59,334.94 59,343.5 C59,352.06 52.06,359 43.5,359 C34.94,359 28,352.06 28,343.5 Z" style="stroke-width: 2; stroke: rgb(155, 155, 155); stroke-opacity: 1; fill: none; fill-opacity: 1;"/></g><g class="composite-shape"><path class="real" d=" M148.25,84.45 C148.14,81.28 150.63,78.61 153.8,78.51 C156.97,78.4 159.64,80.88 159.75,84.05 C159.85,87.23 157.37,89.89 154.2,90 C151.02,90.11 148.36,87.62 148.25,84.45 Z" style="stroke-width: 1; stroke: rgb(0, 0, 0); fill: rgb(189, 16, 224); fill-opacity: 1;"/></g><g class="composite-shape"><path class="real" d=" M196.47,340.41 C196.36,337.24 198.85,334.58 202.02,334.47 C205.2,334.36 207.86,336.84 207.97,340.02 C208.08,343.19 205.59,345.85 202.42,345.96 C199.24,346.07 196.58,343.59 196.47,340.41 Z" style="stroke-width: 1; stroke: rgb(0, 0, 0); fill: rgb(189, 16, 224); fill-opacity: 1;"/></g><g class="arrow-line"><path class="connection real" stroke-dasharray="" d="  M181.75,304.55 L221,304.5" style="stroke: rgb(65, 117, 5); stroke-opacity: 1; stroke-width: 2; fill: none; fill-opacity: 1;"/></g><g/></g><g/><g/><g/></svg>
        <svg xmlns="http://www.w3.org/2000/svg" xmlns:xlink="http://www.w3.org/1999/xlink" width="660" height="399" style="width:660px;height:399px;font-family:Asana-Math, Asana;background:#FFF;"><g><g><g><g transform="matrix(1,0,0,1,187,150.5)"><path transform="matrix(0.017,0,0,-0.017,0,0)" d="M105 664L161 662C185 661 196 653 196 635C196 621 192 589 187 559L112 125C96 34 94 32 54 28L13 25L9 -3L51 -2C98 0 117 0 141 0L238 -3L264 -3L267 25L218 28C191 30 182 38 182 58C182 67 183 76 186 93L287 648C316 654 336 656 363 656C450 656 496 617 496 543C496 448 418 378 314 378L270 378L267 367C401 172 432 124 507 -3C507 -3 592 0 592 0C593 0 607 -1 626 -3L639 -3L639 24C599 29 588 37 559 79L375 354C430 364 459 376 495 402C553 444 584 499 584 560C584 646 520 693 409 691L108 691Z" stroke="rgb(0,0,0)" stroke-opacity="1" stroke-width="8" fill="rgb(0,0,0)" fill-opacity="1"></path></g></g></g></g><g><g><g><g transform="matrix(1,0,0,1,157.1953125,115.3046875)"><path transform="matrix(0.017,0,0,-0.017,0,0)" d="M105 664L161 662C185 661 196 653 196 635C196 621 192 589 187 559L112 125C96 34 94 32 54 28L13 25L9 -3L51 -2C98 0 117 0 141 0L238 -3L264 -3L267 25L218 28C191 30 182 38 182 58C182 67 183 76 186 93L287 648C316 654 336 656 363 656C450 656 496 617 496 543C496 448 418 378 314 378L270 378L267 367C401 172 432 124 507 -3C507 -3 592 0 592 0C593 0 607 -1 626 -3L639 -3L639 24C599 29 588 37 559 79L375 354C430 364 459 376 495 402C553 444 584 499 584 560C584 646 520 693 409 691L108 691Z" stroke="rgb(0,0,0)" stroke-opacity="1" stroke-width="8" fill="rgb(0,0,0)" fill-opacity="1"></path></g></g></g></g><g><g><g><g transform="matrix(1,0,0,1,118,128.5)"><path transform="matrix(0.017,0,0,-0.017,0,0)" d="M105 664L161 662C185 661 196 653 196 635C196 621 192 589 187 559L112 125C96 34 94 32 54 28L13 25L9 -3L51 -2C98 0 117 0 141 0L238 -3L264 -3L267 25L218 28C191 30 182 38 182 58C182 67 183 76 186 93L287 648C316 654 336 656 363 656C450 656 496 617 496 543C496 448 418 378 314 378L270 378L267 367C401 172 432 124 507 -3C507 -3 592 0 592 0C593 0 607 -1 626 -3L639 -3L639 24C599 29 588 37 559 79L375 354C430 364 459 376 495 402C553 444 584 499 584 560C584 646 520 693 409 691L108 691Z" stroke="rgb(0,0,0)" stroke-opacity="1" stroke-width="8" fill="rgb(0,0,0)" fill-opacity="1"></path></g></g></g></g><g><g><g><g transform="matrix(1,0,0,1,157.09375,146.9453125)"><path transform="matrix(0.017,0,0,-0.017,0,0)" d="M237 -16C473 -16 572 316 576 504C578 618 546 702 419 702C159 702 72 412 69 199C67 80 101 -16 237 -16ZM401 676C536 676 506 491 485 381L169 381C194 485 272 676 401 676ZM253 13C102 13 147 261 163 349L479 349C454 237 396 13 253 13Z" stroke="rgb(0,0,0)" stroke-opacity="1" stroke-width="8" fill="rgb(0,0,0)" fill-opacity="1"></path></g></g></g></g><g><g><g><g transform="matrix(1,0,0,1,140.09375,147.9453125)"><path transform="matrix(0.017,0,0,-0.017,0,0)" d="M237 -16C473 -16 572 316 576 504C578 618 546 702 419 702C159 702 72 412 69 199C67 80 101 -16 237 -16ZM401 676C536 676 506 491 485 381L169 381C194 485 272 676 401 676ZM253 13C102 13 147 261 163 349L479 349C454 237 396 13 253 13Z" stroke="rgb(0,0,0)" stroke-opacity="1" stroke-width="8" fill="rgb(0,0,0)" fill-opacity="1"></path></g></g></g></g><g><g><g><g transform="matrix(1,0,0,1,355,25.5)"><path transform="matrix(0.017,0,0,-0.017,0,0)" d="M105 664L161 662C185 661 196 653 196 635C196 621 192 589 187 559L112 125C96 34 94 32 54 28L13 25L9 -3L51 -2C98 0 117 0 141 0L238 -3L264 -3L267 25L218 28C191 30 182 38 182 58C182 67 183 76 186 93L287 648C316 654 336 656 363 656C450 656 496 617 496 543C496 448 418 378 314 378L270 378L267 367C401 172 432 124 507 -3C507 -3 592 0 592 0C593 0 607 -1 626 -3L639 -3L639 24C599 29 588 37 559 79L375 354C430 364 459 376 495 402C553 444 584 499 584 560C584 646 520 693 409 691L108 691Z" stroke="rgb(0,0,0)" stroke-opacity="1" stroke-width="8" fill="rgb(0,0,0)" fill-opacity="1"></path></g></g><g><g transform="matrix(1,0,0,1,371.421875,25.5)"><path transform="matrix(0.017,0,0,-0.017,0,0)" d="M604 347L604 406L65 406L65 347ZM604 134L604 193L65 193L65 134Z" stroke="rgb(0,0,0)" stroke-opacity="1" stroke-width="8" fill="rgb(0,0,0)" fill-opacity="1"></path></g></g><g><g transform="matrix(1,0,0,1,387.875,25.5)"><path transform="matrix(0.017,0,0,-0.017,0,0)" d="M354 664L410 662C434 661 445 653 445 635C445 621 441 589 436 559L361 125C345 34 343 32 303 28L262 25L258 -3L300 -2C347 0 366 0 390 0L487 -3L513 -3L516 25L467 28C440 30 431 38 431 58C431 67 432 76 435 93L536 648C565 654 585 656 612 656C699 656 745 617 745 543C745 448 667 378 563 378L519 378L516 367C650 172 681 124 756 -3C756 -3 841 0 841 0C842 0 856 -1 875 -3L888 -3L888 24C848 29 837 37 808 79L624 354C679 364 708 376 744 402C802 444 833 499 833 560C833 646 769 693 658 691L357 691ZM1186 204L1157 77C1153 60 1151 42 1151 26C1151 4 1160 -9 1175 -9C1198 -9 1239 17 1321 85L1314 106C1290 86 1261 59 1239 59C1230 59 1224 68 1224 82C1224 87 1224 90 1225 93L1317 472L1307 481L1274 463C1233 478 1216 482 1189 482C1161 482 1141 477 1114 464C1052 433 1019 403 994 354C950 265 919 145 919 67C919 23 934 -11 953 -11C990 -11 1070 41 1186 204ZM1234 414C1212 305 1193 253 1159 201C1102 117 1041 59 1009 59C997 59 991 72 991 99C991 163 1019 280 1054 360C1078 415 1101 433 1149 433C1172 433 1190 429 1234 414ZM1841 722L1829 733C1777 707 1741 698 1669 691L1665 670L1713 670C1737 670 1747 663 1747 646C1747 638 1746 629 1745 622L1717 468C1687 477 1660 482 1635 482C1566 482 1472 410 1426 323C1395 265 1375 170 1375 86C1375 21 1390 -11 1419 -11C1446 -11 1483 6 1517 33C1571 77 1604 116 1671 217L1648 126C1637 82 1632 50 1632 24C1632 3 1641 -9 1658 -9C1675 -9 1699 3 1733 28L1814 88L1804 107L1760 76C1746 66 1730 59 1721 59C1713 59 1707 68 1707 82C1707 90 1708 99 1715 128ZM1472 59C1456 59 1447 73 1447 98C1447 224 1493 380 1542 418C1555 428 1574 433 1601 433C1645 433 1674 427 1707 410L1695 351C1658 171 1517 59 1472 59ZM1891 388L1898 368L1930 389C1967 412 1970 414 1977 414C1987 414 1995 404 1995 391C1995 384 1991 361 1987 347L1921 107C1913 76 1908 49 1908 30C1908 6 1919 -9 1938 -9C1964 -9 2000 12 2098 85L2088 103L2062 86C2033 67 2010 56 2001 56C1994 56 1988 66 1988 76C1988 86 1990 95 1995 116L2072 420C2076 437 2078 448 2078 456C2078 473 2069 482 2053 482C2031 482 1994 461 1919 408ZM2085 712C2056 712 2027 679 2027 645C2027 620 2042 604 2066 604C2097 604 2121 633 2121 671C2121 695 2106 712 2085 712ZM2626 473L2619 482L2551 465L2541 414C2526 336 2501 268 2470 221C2411 130 2333 59 2293 59C2285 59 2280 68 2280 85C2280 99 2282 112 2287 137L2344 408C2347 424 2349 438 2349 451C2349 470 2340 482 2326 482C2306 482 2268 461 2194 408L2166 388L2173 368L2205 389C2233 407 2244 412 2253 412C2262 412 2270 403 2270 392C2270 388 2269 378 2268 374L2205 77C2203 68 2201 44 2201 30C2201 7 2216 -11 2236 -11C2299 -11 2420 101 2504 239L2467 97C2460 73 2456 46 2456 31C2456 6 2467 -9 2486 -9C2512 -9 2548 12 2646 85L2636 103L2610 86C2586 70 2560 59 2549 59C2541 59 2536 66 2536 76C2536 112 2611 416 2626 473ZM2720 148C2715 97 2709 62 2698 16C2736 -2 2770 -11 2805 -11C2854 -11 2900 7 2951 47C3002 87 3023 124 3023 174C3023 228 2991 257 2917 271L2874 279C2814 290 2795 307 2795 348C2795 401 2840 442 2897 442C2938 442 2976 424 2992 397L2992 342L3015 342C3019 377 3023 404 3034 455C2995 474 2967 482 2934 482C2882 482 2821 452 2773 404C2747 377 2736 352 2736 316C2736 260 2767 228 2833 215L2896 203C2940 195 2956 177 2956 138C2956 73 2910 29 2839 29C2804 29 2773 40 2745 64L2745 148ZM3343 152C3343 46 3388 -11 3471 -11C3526 -11 3586 15 3631 57C3693 116 3737 230 3737 331C3737 425 3687 482 3604 482C3500 482 3343 382 3343 152ZM3567 444C3628 444 3661 399 3661 315C3661 219 3630 113 3586 60C3568 39 3542 27 3511 27C3453 27 3419 72 3419 151C3419 264 3458 387 3507 427C3520 438 3543 444 3567 444ZM4114 437L4098 437L4119 549C4135 635 4163 673 4209 673C4239 673 4266 658 4281 634L4291 638C4296 654 4306 685 4314 705L4319 720C4303 727 4272 733 4249 733C4238 733 4222 730 4214 726C4190 715 4108 654 4085 630C4063 608 4051 578 4040 521L4025 442C3984 422 3964 414 3939 405L3934 383L4015 383L4006 327C3976 132 3939 -54 3917 -123C3899 -182 3869 -213 3833 -213C3810 -213 3799 -206 3781 -184L3767 -188C3763 -211 3749 -259 3744 -268C3753 -273 3768 -276 3779 -276C3820 -276 3874 -245 3913 -198C3984 -114 4004 -18 4088 383L4192 383C4196 402 4203 425 4209 439L4205 446C4176 439 4177 437 4114 437ZM4693 390L4637 107C4636 99 4624 61 4624 31C4624 6 4635 -9 4654 -9C4689 -9 4724 11 4802 74L4833 99L4823 117L4778 86C4749 66 4729 56 4718 56C4709 56 4704 64 4704 76C4704 102 4718 183 4747 328L4760 390L4867 390L4878 440C4840 436 4806 434 4768 434C4784 528 4795 577 4813 631L4802 646C4782 634 4755 622 4724 610L4699 440C4655 419 4629 408 4611 403L4609 390ZM5136 722L5124 733C5079 711 5038 697 4964 691L4960 670L5008 670C5026 670 5042 667 5042 647C5042 641 5042 632 5040 622L4998 388C4978 272 4936 80 4910 2L4917 -9L4986 7C4994 64 5008 164 5048 236C5093 317 5196 414 5238 414C5249 414 5260 407 5260 393C5260 375 5255 342 5245 303L5194 107C5188 85 5181 55 5181 31C5181 6 5191 -9 5212 -9C5244 -9 5312 41 5371 85L5361 103L5335 86C5312 71 5286 56 5274 56C5267 56 5261 65 5261 76C5261 88 5264 101 5268 116L5332 372C5338 398 5343 423 5343 447C5343 464 5337 482 5311 482C5276 482 5199 437 5131 374C5098 343 5072 308 5044 273L5040 275ZM5727 111L5703 94C5650 56 5602 36 5566 36C5519 36 5490 73 5490 133C5490 158 5493 185 5498 214C5515 218 5624 248 5649 259C5734 296 5773 342 5773 404C5773 451 5739 482 5689 482C5621 496 5511 423 5474 349C5444 299 5414 180 5414 113C5414 35 5458 -11 5530 -11C5587 -11 5643 17 5735 92ZM5512 274C5529 343 5549 386 5578 412C5596 428 5627 440 5651 440C5680 440 5699 420 5699 388C5699 344 5664 297 5612 272C5584 258 5548 247 5503 237ZM6257 334L6374 334L6506 330L6525 375L6521 382C6440 378 6380 376 6302 376L6265 376L6312 646C6344 647 6427 650 6449 650C6511 650 6552 641 6553 626L6561 537L6585 537C6588 601 6595 651 6606 689C6585 691 6555 692 6537 692C6534 692 6523 692 6499 691L6379 690C6370 689 6196 691 6186 691L6141 692L6138 664L6192 662C6216 661 6227 653 6227 635C6227 621 6223 589 6218 559L6131 55C6127 37 6115 30 6071 23L6066 -3L6107 -2C6138 -1 6200 0 6220 0L6445 -3C6459 -3 6484 -2 6517 -1L6550 0L6554 36C6556 56 6561 86 6570 135L6575 161L6548 161L6532 101C6522 65 6513 53 6491 48C6471 44 6398 39 6344 39C6303 39 6276 40 6207 46ZM6917 204L6888 77C6884 60 6882 42 6882 26C6882 4 6891 -9 6906 -9C6929 -9 6970 17 7052 85L7045 106C7021 86 6992 59 6970 59C6961 59 6955 68 6955 82C6955 87 6955 90 6956 93L7048 472L7038 481L7005 463C6964 478 6947 482 6920 482C6892 482 6872 477 6845 464C6783 433 6750 403 6725 354C6681 265 6650 145 6650 67C6650 23 6665 -11 6684 -11C6721 -11 6801 41 6917 204ZM6965 414C6943 305 6924 253 6890 201C6833 117 6772 59 6740 59C6728 59 6722 72 6722 99C6722 163 6750 280 6785 360C6809 415 6832 433 6880 433C6903 433 6921 429 6965 414ZM7457 365C7460 403 7465 435 7473 476C7462 481 7458 482 7453 482C7422 482 7391 458 7355 407C7316 351 7277 291 7261 256L7293 408C7297 425 7299 438 7299 450C7299 470 7291 482 7276 482C7255 482 7217 461 7143 408L7115 388L7122 368L7154 389C7182 407 7193 412 7202 412C7212 412 7219 403 7219 390C7219 332 7176 126 7136 -2L7146 -9C7161 -4 7177 -1 7200 4L7213 6L7239 126C7257 209 7280 262 7324 319C7358 363 7385 384 7407 384C7422 384 7432 379 7443 365ZM7602 390L7546 107C7545 99 7533 61 7533 31C7533 6 7544 -9 7563 -9C7598 -9 7633 11 7711 74L7742 99L7732 117L7687 86C7658 66 7638 56 7627 56C7618 56 7613 64 7613 76C7613 102 7627 183 7656 328L7669 390L7776 390L7787 440C7749 436 7715 434 7677 434C7693 528 7704 577 7722 631L7711 646C7691 634 7664 622 7633 610L7608 440C7564 419 7538 408 7520 403L7518 390ZM8045 722L8033 733C7988 711 7947 697 7873 691L7869 670L7917 670C7935 670 7951 667 7951 647C7951 641 7951 632 7949 622L7907 388C7887 272 7845 80 7819 2L7826 -9L7895 7C7903 64 7917 164 7957 236C8002 317 8105 414 8147 414C8158 414 8169 407 8169 393C8169 375 8164 342 8154 303L8103 107C8097 85 8090 55 8090 31C8090 6 8100 -9 8121 -9C8153 -9 8221 41 8280 85L8270 103L8244 86C8221 71 8195 56 8183 56C8176 56 8170 65 8170 76C8170 88 8173 101 8177 116L8241 372C8247 398 8252 423 8252 447C8252 464 8246 482 8220 482C8185 482 8108 437 8040 374C8007 343 7981 308 7953 273L7949 275Z" stroke="rgb(0,0,0)" stroke-opacity="1" stroke-width="8" fill="rgb(0,0,0)" fill-opacity="1"></path></g></g><g><g transform="matrix(1,0,0,1,529.1171875,25.5)"><path transform="matrix(0.017,0,0,-0.017,0,0)" d="M204 123C177 114 159 108 106 93C99 17 74 -48 16 -144L30 -155L71 -136C152 -31 190 32 218 109Z" stroke="rgb(0,0,0)" stroke-opacity="1" stroke-width="8" fill="rgb(0,0,0)" fill-opacity="1"></path></g></g><g><g transform="matrix(1,0,0,1,536.75,25.5)"><path transform="matrix(0.017,0,0,-0.017,0,0)" d="M979 103L953 86C924 67 902 56 892 56C885 56 879 65 879 76C879 86 881 95 886 116L961 413C965 430 968 446 968 454C968 471 958 482 942 482C913 482 875 464 814 421C751 376 716 341 667 272L697 409C701 429 704 444 704 451C704 470 694 482 678 482C648 482 602 460 547 418C503 384 483 363 418 275L451 408C455 424 457 439 457 451C457 470 448 482 434 482C413 482 375 461 301 408L273 388L280 368C317 391 352 414 359 414C370 414 377 404 377 389C377 338 336 145 295 2L298 -9L366 6L388 108C412 219 439 278 494 338C536 384 581 414 609 414C616 414 620 406 620 393C620 358 598 244 557 69L541 2L546 -9L615 6L636 113C652 194 686 269 730 318C785 379 835 414 867 414C875 414 880 405 880 389C880 365 877 351 855 264C815 105 799 84 799 31C799 6 810 -9 829 -9C855 -9 891 12 989 85ZM1060 388L1067 368L1099 389C1136 412 1139 414 1146 414C1156 414 1164 404 1164 391C1164 384 1160 361 1156 347L1090 107C1082 76 1077 49 1077 30C1077 6 1088 -9 1107 -9C1133 -9 1169 12 1267 85L1257 103L1231 86C1202 67 1179 56 1170 56C1163 56 1157 66 1157 76C1157 86 1159 95 1164 116L1241 420C1245 437 1247 448 1247 456C1247 473 1238 482 1222 482C1200 482 1163 461 1088 408ZM1254 712C1225 712 1196 679 1196 645C1196 620 1211 604 1235 604C1266 604 1290 633 1290 671C1290 695 1275 712 1254 712ZM1554 722L1542 733C1490 707 1454 698 1382 691L1378 670L1426 670C1450 670 1460 663 1460 648C1460 645 1460 640 1457 622C1446 567 1373 182 1358 132C1345 82 1339 52 1339 31C1339 6 1350 -9 1369 -9C1395 -9 1431 12 1529 85L1519 103L1493 86C1464 67 1442 56 1432 56C1425 56 1419 66 1419 76C1419 82 1420 89 1423 104ZM1908 111L1884 94C1831 56 1783 36 1747 36C1700 36 1671 73 1671 133C1671 158 1674 185 1679 214C1696 218 1805 248 1830 259C1915 296 1954 342 1954 404C1954 451 1920 482 1870 482C1802 496 1692 423 1655 349C1625 299 1595 180 1595 113C1595 35 1639 -11 1711 -11C1768 -11 1824 17 1916 92ZM1693 274C1710 343 1730 386 1759 412C1777 428 1808 440 1832 440C1861 440 1880 420 1880 388C1880 344 1845 297 1793 272C1765 258 1729 247 1684 237ZM1999 148C1994 97 1988 62 1977 16C2015 -2 2049 -11 2084 -11C2133 -11 2179 7 2230 47C2281 87 2302 124 2302 174C2302 228 2270 257 2196 271L2153 279C2093 290 2074 307 2074 348C2074 401 2119 442 2176 442C2217 442 2255 424 2271 397L2271 342L2294 342C2298 377 2302 404 2313 455C2274 474 2246 482 2213 482C2161 482 2100 452 2052 404C2026 377 2015 352 2015 316C2015 260 2046 228 2112 215L2175 203C2219 195 2235 177 2235 138C2235 73 2189 29 2118 29C2083 29 2052 40 2024 64L2024 148Z" stroke="rgb(0,0,0)" stroke-opacity="1" stroke-width="8" fill="rgb(0,0,0)" fill-opacity="1"></path></g></g></g></g><g><g><g><g transform="matrix(1,0,0,1,354,56.5)"><path transform="matrix(0.017,0,0,-0.017,0,0)" d="M236 722L224 733C179 711 138 697 64 691L60 670L108 670C126 670 142 667 142 647C142 641 142 632 140 622L98 388C78 272 36 80 10 2L17 -9L86 7C94 64 108 164 148 236C193 317 296 414 338 414C349 414 360 407 360 393C360 375 355 342 345 303L294 107C288 85 281 55 281 31C281 6 291 -9 312 -9C344 -9 412 41 471 85L461 103L435 86C412 71 386 56 374 56C367 56 361 65 361 76C361 88 364 101 368 116L432 372C438 398 443 423 443 447C443 464 437 482 411 482C376 482 299 437 231 374C198 343 172 308 144 273L140 275Z" stroke="rgb(0,0,0)" stroke-opacity="1" stroke-width="8" fill="rgb(0,0,0)" fill-opacity="1"></path></g></g><g><g transform="matrix(1,0,0,1,367.578125,56.5)"><path transform="matrix(0.017,0,0,-0.017,0,0)" d="M604 347L604 406L65 406L65 347ZM604 134L604 193L65 193L65 134Z" stroke="rgb(0,0,0)" stroke-opacity="1" stroke-width="8" fill="rgb(0,0,0)" fill-opacity="1"></path></g></g><g><g transform="matrix(1,0,0,1,384.03125,56.5)"><path transform="matrix(0.017,0,0,-0.017,0,0)" d="M470 385L512 613C519 652 526 658 563 661L605 664L608 692L584 692L494 689C478 689 460 689 417 690L353 692L350 664L397 662C421 661 432 653 432 635C432 621 428 590 423 559L349 125C332 33 331 32 291 28L250 25L246 -3L288 -2C336 -1 359 0 378 0L475 -3L501 -3L504 25L455 28C428 30 419 37 419 58C419 67 420 74 423 93L465 340L526 341C588 342 630 343 649 343C668 343 709 342 772 341L833 340L793 125C784 76 777 48 772 42C768 34 757 30 735 28L685 25L681 -3L737 -2C781 -1 811 0 822 0C838 0 869 -1 912 -2L954 -3L957 25L899 28C873 29 863 37 863 58C863 67 864 76 867 93L959 613C966 652 972 657 1010 661L1046 664L1049 692L1033 692L942 689C927 689 906 689 862 690L799 692L796 664L844 662C868 661 879 653 879 635C879 621 875 589 870 559L840 385ZM1354 111L1330 94C1277 56 1229 36 1193 36C1146 36 1117 73 1117 133C1117 158 1120 185 1125 214C1142 218 1251 248 1276 259C1361 296 1400 342 1400 404C1400 451 1366 482 1316 482C1248 496 1138 423 1101 349C1071 299 1041 180 1041 113C1041 35 1085 -11 1157 -11C1214 -11 1270 17 1362 92ZM1139 274C1156 343 1176 386 1205 412C1223 428 1254 440 1278 440C1307 440 1326 420 1326 388C1326 344 1291 297 1239 272C1211 258 1175 247 1130 237ZM1448 388L1455 368L1487 389C1524 412 1527 414 1534 414C1544 414 1552 404 1552 391C1552 384 1548 361 1544 347L1478 107C1470 76 1465 49 1465 30C1465 6 1476 -9 1495 -9C1521 -9 1557 12 1655 85L1645 103L1619 86C1590 67 1567 56 1558 56C1551 56 1545 66 1545 76C1545 86 1547 95 1552 116L1629 420C1633 437 1635 448 1635 456C1635 473 1626 482 1610 482C1588 482 1551 461 1476 408ZM1642 712C1613 712 1584 679 1584 645C1584 620 1599 604 1623 604C1654 604 1678 633 1678 671C1678 695 1663 712 1642 712ZM1966 482C1899 482 1746 419 1746 259C1746 182 1791 136 1868 136C1876 136 1887 136 1898 137L1857 99C1841 84 1830 66 1830 52C1830 42 1837 31 1851 19C1782 -4 1654 -48 1654 -159C1654 -230 1724 -276 1833 -276C1962 -276 2075 -204 2075 -121C2075 -85 2054 -49 2011 -14L1951 35C1917 62 1904 81 1904 100C1904 114 1919 128 1931 146C2029 170 2100 253 2100 342C2100 357 2097 376 2096 380C2113 378 2121 378 2130 378C2147 378 2157 379 2180 382L2189 427L2186 433C2158 426 2138 424 2084 424C2084 425 2060 482 1966 482ZM1867 1L1944 -58C1990 -94 2009 -121 2009 -154C2009 -206 1940 -248 1857 -248C1775 -248 1718 -206 1718 -145C1718 -43 1828 -11 1867 1ZM1941 448C1999 448 2028 412 2028 341C2028 238 1980 168 1910 168C1849 168 1817 209 1817 288C1817 383 1868 448 1941 448ZM2426 722L2414 733C2369 711 2328 697 2254 691L2250 670L2298 670C2316 670 2332 667 2332 647C2332 641 2332 632 2330 622L2288 388C2268 272 2226 80 2200 2L2207 -9L2276 7C2284 64 2298 164 2338 236C2383 317 2486 414 2528 414C2539 414 2550 407 2550 393C2550 375 2545 342 2535 303L2484 107C2478 85 2471 55 2471 31C2471 6 2481 -9 2502 -9C2534 -9 2602 41 2661 85L2651 103L2625 86C2602 71 2576 56 2564 56C2557 56 2551 65 2551 76C2551 88 2554 101 2558 116L2622 372C2628 398 2633 423 2633 447C2633 464 2627 482 2601 482C2566 482 2489 437 2421 374C2388 343 2362 308 2334 273L2330 275ZM2814 390L2758 107C2757 99 2745 61 2745 31C2745 6 2756 -9 2775 -9C2810 -9 2845 11 2923 74L2954 99L2944 117L2899 86C2870 66 2850 56 2839 56C2830 56 2825 64 2825 76C2825 102 2839 183 2868 328L2881 390L2988 390L2999 440C2961 436 2927 434 2889 434C2905 528 2916 577 2934 631L2923 646C2903 634 2876 622 2845 610L2820 440C2776 419 2750 408 2732 403L2730 390ZM3287 152C3287 46 3332 -11 3415 -11C3470 -11 3530 15 3575 57C3637 116 3681 230 3681 331C3681 425 3631 482 3548 482C3444 482 3287 382 3287 152ZM3511 444C3572 444 3605 399 3605 315C3605 219 3574 113 3530 60C3512 39 3486 27 3455 27C3397 27 3363 72 3363 151C3363 264 3402 387 3451 427C3464 438 3487 444 3511 444ZM4058 437L4042 437L4063 549C4079 635 4107 673 4153 673C4183 673 4210 658 4225 634L4235 638C4240 654 4250 685 4258 705L4263 720C4247 727 4216 733 4193 733C4182 733 4166 730 4158 726C4134 715 4052 654 4029 630C4007 608 3995 578 3984 521L3969 442C3928 422 3908 414 3883 405L3878 383L3959 383L3950 327C3920 132 3883 -54 3861 -123C3843 -182 3813 -213 3777 -213C3754 -213 3743 -206 3725 -184L3711 -188C3707 -211 3693 -259 3688 -268C3697 -273 3712 -276 3723 -276C3764 -276 3818 -245 3857 -198C3928 -114 3948 -18 4032 383L4136 383C4140 402 4147 425 4153 439L4149 446C4120 439 4121 437 4058 437ZM4529 152C4529 46 4574 -11 4657 -11C4712 -11 4772 15 4817 57C4879 116 4923 230 4923 331C4923 425 4873 482 4790 482C4686 482 4529 382 4529 152ZM4753 444C4814 444 4847 399 4847 315C4847 219 4816 113 4772 60C4754 39 4728 27 4697 27C4639 27 4605 72 4605 151C4605 264 4644 387 4693 427C4706 438 4729 444 4753 444ZM5323 365C5326 403 5331 435 5339 476C5328 481 5324 482 5319 482C5288 482 5257 458 5221 407C5182 351 5143 291 5127 256L5159 408C5163 425 5165 438 5165 450C5165 470 5157 482 5142 482C5121 482 5083 461 5009 408L4981 388L4988 368L5020 389C5048 407 5059 412 5068 412C5078 412 5085 403 5085 390C5085 332 5042 126 5002 -2L5012 -9C5027 -4 5043 -1 5066 4L5079 6L5105 126C5123 209 5146 262 5190 319C5224 363 5251 384 5273 384C5288 384 5298 379 5309 365ZM5578 722L5566 733C5514 707 5478 698 5406 691L5402 670L5450 670C5474 670 5484 663 5484 646C5484 639 5483 628 5482 622L5381 71C5380 68 5380 64 5380 61C5380 22 5428 -11 5483 -11C5520 -11 5571 8 5614 39C5710 107 5776 244 5776 376C5776 414 5767 453 5755 468C5748 477 5735 482 5720 482C5696 482 5666 474 5638 460C5587 433 5554 403 5492 324ZM5665 424C5691 424 5704 401 5704 352C5704 288 5683 202 5653 137C5620 68 5580 36 5526 36C5480 36 5455 59 5455 101C5455 135 5470 276 5551 361C5584 395 5636 424 5665 424ZM5839 388L5846 368L5878 389C5915 412 5918 414 5925 414C5935 414 5943 404 5943 391C5943 384 5939 361 5935 347L5869 107C5861 76 5856 49 5856 30C5856 6 5867 -9 5886 -9C5912 -9 5948 12 6046 85L6036 103L6010 86C5981 67 5958 56 5949 56C5942 56 5936 66 5936 76C5936 86 5938 95 5943 116L6020 420C6024 437 6026 448 6026 456C6026 473 6017 482 6001 482C5979 482 5942 461 5867 408ZM6033 712C6004 712 5975 679 5975 645C5975 620 5990 604 6014 604C6045 604 6069 633 6069 671C6069 695 6054 712 6033 712ZM6207 390L6151 107C6150 99 6138 61 6138 31C6138 6 6149 -9 6168 -9C6203 -9 6238 11 6316 74L6347 99L6337 117L6292 86C6263 66 6243 56 6232 56C6223 56 6218 64 6218 76C6218 102 6232 183 6261 328L6274 390L6381 390L6392 440C6354 436 6320 434 6282 434C6298 528 6309 577 6327 631L6316 646C6296 634 6269 622 6238 610L6213 440C6169 419 6143 408 6125 403L6123 390ZM6680 152C6680 46 6725 -11 6808 -11C6863 -11 6923 15 6968 57C7030 116 7074 230 7074 331C7074 425 7024 482 6941 482C6837 482 6680 382 6680 152ZM6904 444C6965 444 6998 399 6998 315C6998 219 6967 113 6923 60C6905 39 6879 27 6848 27C6790 27 6756 72 6756 151C6756 264 6795 387 6844 427C6857 438 6880 444 6904 444ZM7451 437L7435 437L7456 549C7472 635 7500 673 7546 673C7576 673 7603 658 7618 634L7628 638C7633 654 7643 685 7651 705L7656 720C7640 727 7609 733 7586 733C7575 733 7559 730 7551 726C7527 715 7445 654 7422 630C7400 608 7388 578 7377 521L7362 442C7321 422 7301 414 7276 405L7271 383L7352 383L7343 327C7313 132 7276 -54 7254 -123C7236 -182 7206 -213 7170 -213C7147 -213 7136 -206 7118 -184L7104 -188C7100 -211 7086 -259 7081 -268C7090 -273 7105 -276 7116 -276C7157 -276 7211 -245 7250 -198C7321 -114 7341 -18 7425 383L7529 383C7533 402 7540 425 7546 439L7542 446C7513 439 7514 437 7451 437ZM8008 664L8055 662C8079 661 8090 653 8090 636C8090 629 8084 576 8081 559L8009 125C7994 36 7991 31 7951 28L7915 25L7912 -3L7944 -3L8038 0L8132 -3L8164 -3L8167 25L8115 28C8089 30 8079 37 8079 57C8079 63 8080 74 8081 78L8170 613C8177 652 8182 657 8221 661L8256 664L8259 692L8153 689C8136 689 8118 689 8075 690L8011 692ZM8345 471C8345 386 8383 339 8467 319L8562 296C8616 283 8643 248 8643 191C8643 96 8572 30 8469 30C8415 30 8377 42 8333 73L8333 172L8303 172C8297 117 8290 72 8279 20C8328 -5 8381 -18 8434 -18C8589 -18 8722 99 8722 234C8722 313 8679 355 8578 377L8513 391C8447 405 8417 442 8417 508C8417 595 8484 658 8576 658C8625 658 8658 645 8688 613L8688 537L8718 537C8722 591 8729 629 8743 672C8698 696 8658 706 8611 706C8487 706 8345 614 8345 471ZM8900 471C8900 386 8938 339 9022 319L9117 296C9171 283 9198 248 9198 191C9198 96 9127 30 9024 30C8970 30 8932 42 8888 73L8888 172L8858 172C8852 117 8845 72 8834 20C8883 -5 8936 -18 8989 -18C9144 -18 9277 99 9277 234C9277 313 9234 355 9133 377L9068 391C9002 405 8972 442 8972 508C8972 595 9039 658 9131 658C9180 658 9213 645 9243 613L9243 537L9273 537C9277 591 9284 629 9298 672C9253 696 9213 706 9166 706C9042 706 8900 614 8900 471Z" stroke="rgb(0,0,0)" stroke-opacity="1" stroke-width="8" fill="rgb(0,0,0)" fill-opacity="1"></path></g></g><g><g transform="matrix(1,0,0,1,542.9375,56.5)"><path transform="matrix(0.017,0,0,-0.017,0,0)" d="M204 123C177 114 159 108 106 93C99 17 74 -48 16 -144L30 -155L71 -136C152 -31 190 32 218 109Z" stroke="rgb(0,0,0)" stroke-opacity="1" stroke-width="8" fill="rgb(0,0,0)" fill-opacity="1"></path></g></g><g><g transform="matrix(1,0,0,1,550.5703125,56.5)"><path transform="matrix(0.017,0,0,-0.017,0,0)" d="M979 103L953 86C924 67 902 56 892 56C885 56 879 65 879 76C879 86 881 95 886 116L961 413C965 430 968 446 968 454C968 471 958 482 942 482C913 482 875 464 814 421C751 376 716 341 667 272L697 409C701 429 704 444 704 451C704 470 694 482 678 482C648 482 602 460 547 418C503 384 483 363 418 275L451 408C455 424 457 439 457 451C457 470 448 482 434 482C413 482 375 461 301 408L273 388L280 368C317 391 352 414 359 414C370 414 377 404 377 389C377 338 336 145 295 2L298 -9L366 6L388 108C412 219 439 278 494 338C536 384 581 414 609 414C616 414 620 406 620 393C620 358 598 244 557 69L541 2L546 -9L615 6L636 113C652 194 686 269 730 318C785 379 835 414 867 414C875 414 880 405 880 389C880 365 877 351 855 264C815 105 799 84 799 31C799 6 810 -9 829 -9C855 -9 891 12 989 85ZM1060 388L1067 368L1099 389C1136 412 1139 414 1146 414C1156 414 1164 404 1164 391C1164 384 1160 361 1156 347L1090 107C1082 76 1077 49 1077 30C1077 6 1088 -9 1107 -9C1133 -9 1169 12 1267 85L1257 103L1231 86C1202 67 1179 56 1170 56C1163 56 1157 66 1157 76C1157 86 1159 95 1164 116L1241 420C1245 437 1247 448 1247 456C1247 473 1238 482 1222 482C1200 482 1163 461 1088 408ZM1254 712C1225 712 1196 679 1196 645C1196 620 1211 604 1235 604C1266 604 1290 633 1290 671C1290 695 1275 712 1254 712ZM1554 722L1542 733C1490 707 1454 698 1382 691L1378 670L1426 670C1450 670 1460 663 1460 648C1460 645 1460 640 1457 622C1446 567 1373 182 1358 132C1345 82 1339 52 1339 31C1339 6 1350 -9 1369 -9C1395 -9 1431 12 1529 85L1519 103L1493 86C1464 67 1442 56 1432 56C1425 56 1419 66 1419 76C1419 82 1420 89 1423 104ZM1908 111L1884 94C1831 56 1783 36 1747 36C1700 36 1671 73 1671 133C1671 158 1674 185 1679 214C1696 218 1805 248 1830 259C1915 296 1954 342 1954 404C1954 451 1920 482 1870 482C1802 496 1692 423 1655 349C1625 299 1595 180 1595 113C1595 35 1639 -11 1711 -11C1768 -11 1824 17 1916 92ZM1693 274C1710 343 1730 386 1759 412C1777 428 1808 440 1832 440C1861 440 1880 420 1880 388C1880 344 1845 297 1793 272C1765 258 1729 247 1684 237ZM1999 148C1994 97 1988 62 1977 16C2015 -2 2049 -11 2084 -11C2133 -11 2179 7 2230 47C2281 87 2302 124 2302 174C2302 228 2270 257 2196 271L2153 279C2093 290 2074 307 2074 348C2074 401 2119 442 2176 442C2217 442 2255 424 2271 397L2271 342L2294 342C2298 377 2302 404 2313 455C2274 474 2246 482 2213 482C2161 482 2100 452 2052 404C2026 377 2015 352 2015 316C2015 260 2046 228 2112 215L2175 203C2219 195 2235 177 2235 138C2235 73 2189 29 2118 29C2083 29 2052 40 2024 64L2024 148Z" stroke="rgb(0,0,0)" stroke-opacity="1" stroke-width="8" fill="rgb(0,0,0)" fill-opacity="1"></path></g></g></g></g><g><g><g><g transform="matrix(1,0,0,1,227,113.3046875)"><path transform="matrix(0.017,0,0,-0.017,0,0)" d="M236 722L224 733C179 711 138 697 64 691L60 670L108 670C126 670 142 667 142 647C142 641 142 632 140 622L98 388C78 272 36 80 10 2L17 -9L86 7C94 64 108 164 148 236C193 317 296 414 338 414C349 414 360 407 360 393C360 375 355 342 345 303L294 107C288 85 281 55 281 31C281 6 291 -9 312 -9C344 -9 412 41 471 85L461 103L435 86C412 71 386 56 374 56C367 56 361 65 361 76C361 88 364 101 368 116L432 372C438 398 443 423 443 447C443 464 437 482 411 482C376 482 299 437 231 374C198 343 172 308 144 273L140 275Z" stroke="rgb(208,2,27)" stroke-opacity="1" stroke-width="8" fill="rgb(208,2,27)" fill-opacity="1"></path></g></g></g></g><g><g><g><g transform="matrix(1,0,0,1,66,112.3046875)"><path transform="matrix(0.017,0,0,-0.017,0,0)" d="M236 722L224 733C179 711 138 697 64 691L60 670L108 670C126 670 142 667 142 647C142 641 142 632 140 622L98 388C78 272 36 80 10 2L17 -9L86 7C94 64 108 164 148 236C193 317 296 414 338 414C349 414 360 407 360 393C360 375 355 342 345 303L294 107C288 85 281 55 281 31C281 6 291 -9 312 -9C344 -9 412 41 471 85L461 103L435 86C412 71 386 56 374 56C367 56 361 65 361 76C361 88 364 101 368 116L432 372C438 398 443 423 443 447C443 464 437 482 411 482C376 482 299 437 231 374C198 343 172 308 144 273L140 275Z" stroke="rgb(208,2,27)" stroke-opacity="1" stroke-width="8" fill="rgb(208,2,27)" fill-opacity="1"></path></g></g></g></g><g><g><g><g transform="matrix(1,0,0,1,398,124.5)"><path transform="matrix(0.017,0,0,-0.017,0,0)" d="M105 664L161 662C185 661 196 653 196 635C196 621 192 589 187 559L112 125C96 34 94 32 54 28L13 25L9 -3L51 -2C98 0 117 0 141 0L238 -3L264 -3L267 25L218 28C191 30 182 38 182 58C182 67 183 76 186 93L287 648C316 654 336 656 363 656C450 656 496 617 496 543C496 448 418 378 314 378L270 378L267 367C401 172 432 124 507 -3C507 -3 592 0 592 0C593 0 607 -1 626 -3L639 -3L639 24C599 29 588 37 559 79L375 354C430 364 459 376 495 402C553 444 584 499 584 560C584 646 520 693 409 691L108 691Z" stroke="rgb(0,0,0)" stroke-opacity="1" stroke-width="8" fill="rgb(0,0,0)" fill-opacity="1"></path></g></g><g><g transform="matrix(1,0,0,1,412.7265625,124.5)"><path transform="matrix(0.017,0,0,-0.017,0,0)" d="M604 241L604 300L364 300L364 538L305 538L305 300L65 300L65 241L305 241L305 0L364 0L364 241Z" stroke="rgb(0,0,0)" stroke-opacity="1" stroke-width="8" fill="rgb(0,0,0)" fill-opacity="1"></path></g></g><g><g transform="matrix(1,0,0,1,427.484375,124.5)"><path transform="matrix(0.017,0,0,-0.017,0,0)" d="M236 722L224 733C179 711 138 697 64 691L60 670L108 670C126 670 142 667 142 647C142 641 142 632 140 622L98 388C78 272 36 80 10 2L17 -9L86 7C94 64 108 164 148 236C193 317 296 414 338 414C349 414 360 407 360 393C360 375 355 342 345 303L294 107C288 85 281 55 281 31C281 6 291 -9 312 -9C344 -9 412 41 471 85L461 103L435 86C412 71 386 56 374 56C367 56 361 65 361 76C361 88 364 101 368 116L432 372C438 398 443 423 443 447C443 464 437 482 411 482C376 482 299 437 231 374C198 343 172 308 144 273L140 275Z" stroke="rgb(0,0,0)" stroke-opacity="1" stroke-width="8" fill="rgb(0,0,0)" fill-opacity="1"></path></g></g></g></g><g><g><g><g transform="matrix(1,0,0,1,341,154.5)"><path transform="matrix(0.017,0,0,-0.017,0,0)" d="M105 664L161 662C185 661 196 653 196 635C196 621 192 589 187 559L112 125C96 34 94 32 54 28L13 25L9 -3L51 -2C98 0 117 0 141 0L238 -3L264 -3L267 25L218 28C191 30 182 38 182 58C182 67 183 76 186 93L287 648C316 654 336 656 363 656C450 656 496 617 496 543C496 448 418 378 314 378L270 378L267 367C401 172 432 124 507 -3C507 -3 592 0 592 0C593 0 607 -1 626 -3L639 -3L639 24C599 29 588 37 559 79L375 354C430 364 459 376 495 402C553 444 584 499 584 560C584 646 520 693 409 691L108 691Z" stroke="rgb(0,0,0)" stroke-opacity="1" stroke-width="8" fill="rgb(0,0,0)" fill-opacity="1"></path></g></g></g></g><g><g><g><g transform="matrix(1,0,0,1,359.09375,224.9453125)"><path transform="matrix(0.017,0,0,-0.017,0,0)" d="M342 330L365 330C373 395 380 432 389 458C365 473 330 482 293 482C248 483 175 463 118 400C64 352 25 241 25 136C25 40 67 -11 147 -11C201 -11 249 9 304 54L354 95L346 115L331 105C259 57 221 40 186 40C130 40 101 80 101 159C101 267 136 371 185 409C206 425 230 433 261 433C306 433 342 414 342 390ZM423 152C423 46 468 -11 551 -11C606 -11 666 15 711 57C773 116 817 230 817 331C817 425 767 482 684 482C580 482 423 382 423 152ZM647 444C708 444 741 399 741 315C741 219 710 113 666 60C648 39 622 27 591 27C533 27 499 72 499 151C499 264 538 387 587 427C600 438 623 444 647 444ZM880 148C875 97 869 62 858 16C896 -2 930 -11 965 -11C1014 -11 1060 7 1111 47C1162 87 1183 124 1183 174C1183 228 1151 257 1077 271L1034 279C974 290 955 307 955 348C955 401 1000 442 1057 442C1098 442 1136 424 1152 397L1152 342L1175 342C1179 377 1183 404 1194 455C1155 474 1127 482 1094 482C1042 482 981 452 933 404C907 377 896 352 896 316C896 260 927 228 993 215L1056 203C1100 195 1116 177 1116 138C1116 73 1070 29 999 29C964 29 933 40 905 64L905 148Z" stroke="rgb(0,0,0)" stroke-opacity="1" stroke-width="8" fill="rgb(0,0,0)" fill-opacity="1"></path></g></g><g><g transform="matrix(1,0,0,1,380.125,225.4453125)"><path transform="matrix(0.017,0,0,-0.017,0,0)" d="M146 266C146 526 243 632 301 700L282 726C225 675 60 542 60 266C60 159 85 58 133 -32C168 -99 200 -138 282 -215L301 -194C255 -137 146 -15 146 266Z" stroke="rgb(0,0,0)" stroke-opacity="1" stroke-width="8" fill="rgb(0,0,0)" fill-opacity="1"></path></g></g><g><g transform="matrix(1,0,0,1,385.7734375,224.9453125)"><path transform="matrix(0.017,0,0,-0.017,0,0)" d="M237 -16C473 -16 572 316 576 504C578 618 546 702 419 702C159 702 72 412 69 199C67 80 101 -16 237 -16ZM401 676C536 676 506 491 485 381L169 381C194 485 272 676 401 676ZM253 13C102 13 147 261 163 349L479 349C454 237 396 13 253 13Z" stroke="rgb(0,0,0)" stroke-opacity="1" stroke-width="8" fill="rgb(0,0,0)" fill-opacity="1"></path></g></g><g><g transform="matrix(1,0,0,1,396.1953125,225.4453125)"><path transform="matrix(0.017,0,0,-0.017,0,0)" d="M51 726L32 700C87 636 187 526 187 266C187 -10 83 -131 32 -194L51 -215C104 -165 273 -23 273 265C273 542 108 675 51 726Z" stroke="rgb(0,0,0)" stroke-opacity="1" stroke-width="8" fill="rgb(0,0,0)" fill-opacity="1"></path></g></g><g><g transform="matrix(1,0,0,1,406.9375,224.9453125)"><path transform="matrix(0.017,0,0,-0.017,0,0)" d="M604 347L604 406L65 406L65 347ZM604 134L604 193L65 193L65 134Z" stroke="rgb(0,0,0)" stroke-opacity="1" stroke-width="8" fill="rgb(0,0,0)" fill-opacity="1"></path></g></g><g><g transform="matrix(1,0,0,1,423.390625,224.9453125)"><path transform="matrix(0.017,0,0,-0.017,0,0)" d="M105 664L161 662C185 661 196 653 196 635C196 621 192 589 187 559L112 125C96 34 94 32 54 28L13 25L9 -3L51 -2C98 0 117 0 141 0L238 -3L264 -3L267 25L218 28C191 30 182 38 182 58C182 67 183 76 186 93L287 648C316 654 336 656 363 656C450 656 496 617 496 543C496 448 418 378 314 378L270 378L267 367C401 172 432 124 507 -3C507 -3 592 0 592 0C593 0 607 -1 626 -3L639 -3L639 24C599 29 588 37 559 79L375 354C430 364 459 376 495 402C553 444 584 499 584 560C584 646 520 693 409 691L108 691Z" stroke="rgb(0,0,0)" stroke-opacity="1" stroke-width="8" fill="rgb(0,0,0)" fill-opacity="1"></path></g></g><g><g transform="matrix(1,0,0,1,438.1171875,224.9453125)"><path transform="matrix(0.017,0,0,-0.017,0,0)" d="M297 714L242 714L-37 -169L18 -169Z" stroke="rgb(0,0,0)" stroke-opacity="1" stroke-width="8" fill="rgb(0,0,0)" fill-opacity="1"></path></g></g><g><g transform="matrix(1,0,0,1,446.3828125,225.4453125)"><path transform="matrix(0.017,0,0,-0.017,0,0)" d="M146 266C146 526 243 632 301 700L282 726C225 675 60 542 60 266C60 159 85 58 133 -32C168 -99 200 -138 282 -215L301 -194C255 -137 146 -15 146 266Z" stroke="rgb(0,0,0)" stroke-opacity="1" stroke-width="8" fill="rgb(0,0,0)" fill-opacity="1"></path></g></g><g><g transform="matrix(1,0,0,1,452.03125,224.9453125)"><path transform="matrix(0.017,0,0,-0.017,0,0)" d="M105 664L161 662C185 661 196 653 196 635C196 621 192 589 187 559L112 125C96 34 94 32 54 28L13 25L9 -3L51 -2C98 0 117 0 141 0L238 -3L264 -3L267 25L218 28C191 30 182 38 182 58C182 67 183 76 186 93L287 648C316 654 336 656 363 656C450 656 496 617 496 543C496 448 418 378 314 378L270 378L267 367C401 172 432 124 507 -3C507 -3 592 0 592 0C593 0 607 -1 626 -3L639 -3L639 24C599 29 588 37 559 79L375 354C430 364 459 376 495 402C553 444 584 499 584 560C584 646 520 693 409 691L108 691Z" stroke="rgb(0,0,0)" stroke-opacity="1" stroke-width="8" fill="rgb(0,0,0)" fill-opacity="1"></path></g></g><g><g transform="matrix(1,0,0,1,466.7578125,224.9453125)"><path transform="matrix(0.017,0,0,-0.017,0,0)" d="M604 241L604 300L364 300L364 538L305 538L305 300L65 300L65 241L305 241L305 0L364 0L364 241Z" stroke="rgb(0,0,0)" stroke-opacity="1" stroke-width="8" fill="rgb(0,0,0)" fill-opacity="1"></path></g></g><g><g transform="matrix(1,0,0,1,481.515625,224.9453125)"><path transform="matrix(0.017,0,0,-0.017,0,0)" d="M236 722L224 733C179 711 138 697 64 691L60 670L108 670C126 670 142 667 142 647C142 641 142 632 140 622L98 388C78 272 36 80 10 2L17 -9L86 7C94 64 108 164 148 236C193 317 296 414 338 414C349 414 360 407 360 393C360 375 355 342 345 303L294 107C288 85 281 55 281 31C281 6 291 -9 312 -9C344 -9 412 41 471 85L461 103L435 86C412 71 386 56 374 56C367 56 361 65 361 76C361 88 364 101 368 116L432 372C438 398 443 423 443 447C443 464 437 482 411 482C376 482 299 437 231 374C198 343 172 308 144 273L140 275Z" stroke="rgb(0,0,0)" stroke-opacity="1" stroke-width="8" fill="rgb(0,0,0)" fill-opacity="1"></path></g></g><g><g transform="matrix(1,0,0,1,490,225.4453125)"><path transform="matrix(0.017,0,0,-0.017,0,0)" d="M51 726L32 700C87 636 187 526 187 266C187 -10 83 -131 32 -194L51 -215C104 -165 273 -23 273 265C273 542 108 675 51 726Z" stroke="rgb(0,0,0)" stroke-opacity="1" stroke-width="8" fill="rgb(0,0,0)" fill-opacity="1"></path></g></g></g></g><g><g><g><g transform="matrix(1,0,0,1,359.09375,254.5390625)"><path transform="matrix(0.017,0,0,-0.017,0,0)" d="M237 -16C473 -16 572 316 576 504C578 618 546 702 419 702C159 702 72 412 69 199C67 80 101 -16 237 -16ZM401 676C536 676 506 491 485 381L169 381C194 485 272 676 401 676ZM253 13C102 13 147 261 163 349L479 349C454 237 396 13 253 13Z" stroke="rgb(0,0,0)" stroke-opacity="1" stroke-width="8" fill="rgb(0,0,0)" fill-opacity="1"></path></g></g><g><g transform="matrix(1,0,0,1,374.609375,254.5390625)"><path transform="matrix(0.017,0,0,-0.017,0,0)" d="M604 347L604 406L65 406L65 347ZM604 134L604 193L65 193L65 134Z" stroke="rgb(0,0,0)" stroke-opacity="1" stroke-width="8" fill="rgb(0,0,0)" fill-opacity="1"></path></g></g><g><g transform="matrix(1,0,0,1,391.0625,254.5390625)"><path transform="matrix(0.017,0,0,-0.017,0,0)" d="M342 330L365 330C373 395 380 432 389 458C365 473 330 482 293 482C248 483 175 463 118 400C64 352 25 241 25 136C25 40 67 -11 147 -11C201 -11 249 9 304 54L354 95L346 115L331 105C259 57 221 40 186 40C130 40 101 80 101 159C101 267 136 371 185 409C206 425 230 433 261 433C306 433 342 414 342 390ZM423 152C423 46 468 -11 551 -11C606 -11 666 15 711 57C773 116 817 230 817 331C817 425 767 482 684 482C580 482 423 382 423 152ZM647 444C708 444 741 399 741 315C741 219 710 113 666 60C648 39 622 27 591 27C533 27 499 72 499 151C499 264 538 387 587 427C600 438 623 444 647 444ZM880 148C875 97 869 62 858 16C896 -2 930 -11 965 -11C1014 -11 1060 7 1111 47C1162 87 1183 124 1183 174C1183 228 1151 257 1077 271L1034 279C974 290 955 307 955 348C955 401 1000 442 1057 442C1098 442 1136 424 1152 397L1152 342L1175 342C1179 377 1183 404 1194 455C1155 474 1127 482 1094 482C1042 482 981 452 933 404C907 377 896 352 896 316C896 260 927 228 993 215L1056 203C1100 195 1116 177 1116 138C1116 73 1070 29 999 29C964 29 933 40 905 64L905 148Z" stroke="rgb(0,0,0)" stroke-opacity="1" stroke-width="8" fill="rgb(0,0,0)" fill-opacity="1"></path></g></g><g><g><g><g><g transform="matrix(1,0,0,1,413.0703125,247.8453125)"><path transform="matrix(0.0119,0,0,-0.0119,0,0)" d="M555 243L555 299L51 299L51 243ZM1023 -3L1023 27L971 30C916 33 906 44 906 96L906 700L665 598L672 548L822 614L822 96C822 44 811 33 757 30L701 27L701 -3C855 0 855 0 866 0C897 0 1007 -3 1023 -3Z" stroke="rgb(0,0,0)" stroke-opacity="1" stroke-width="8" fill="rgb(0,0,0)" fill-opacity="1"></path></g></g></g></g></g><g><g transform="matrix(1,0,0,1,427.2265625,255.0390625)"><path transform="matrix(0.017,0,0,-0.017,0,0)" d="M146 266C146 526 243 632 301 700L282 726C225 675 60 542 60 266C60 159 85 58 133 -32C168 -99 200 -138 282 -215L301 -194C255 -137 146 -15 146 266Z" stroke="rgb(0,0,0)" stroke-opacity="1" stroke-width="8" fill="rgb(0,0,0)" fill-opacity="1"></path></g></g><g><g transform="matrix(1,0,0,1,432.875,254.5390625)"><path transform="matrix(0.017,0,0,-0.017,0,0)" d="M105 664L161 662C185 661 196 653 196 635C196 621 192 589 187 559L112 125C96 34 94 32 54 28L13 25L9 -3L51 -2C98 0 117 0 141 0L238 -3L264 -3L267 25L218 28C191 30 182 38 182 58C182 67 183 76 186 93L287 648C316 654 336 656 363 656C450 656 496 617 496 543C496 448 418 378 314 378L270 378L267 367C401 172 432 124 507 -3C507 -3 592 0 592 0C593 0 607 -1 626 -3L639 -3L639 24C599 29 588 37 559 79L375 354C430 364 459 376 495 402C553 444 584 499 584 560C584 646 520 693 409 691L108 691Z" stroke="rgb(0,0,0)" stroke-opacity="1" stroke-width="8" fill="rgb(0,0,0)" fill-opacity="1"></path></g></g><g><g transform="matrix(1,0,0,1,447.6015625,254.5390625)"><path transform="matrix(0.017,0,0,-0.017,0,0)" d="M297 714L242 714L-37 -169L18 -169Z" stroke="rgb(0,0,0)" stroke-opacity="1" stroke-width="8" fill="rgb(0,0,0)" fill-opacity="1"></path></g></g><g><g transform="matrix(1,0,0,1,455.8671875,255.0390625)"><path transform="matrix(0.017,0,0,-0.017,0,0)" d="M146 266C146 526 243 632 301 700L282 726C225 675 60 542 60 266C60 159 85 58 133 -32C168 -99 200 -138 282 -215L301 -194C255 -137 146 -15 146 266Z" stroke="rgb(0,0,0)" stroke-opacity="1" stroke-width="8" fill="rgb(0,0,0)" fill-opacity="1"></path></g></g><g><g transform="matrix(1,0,0,1,461.515625,254.5390625)"><path transform="matrix(0.017,0,0,-0.017,0,0)" d="M105 664L161 662C185 661 196 653 196 635C196 621 192 589 187 559L112 125C96 34 94 32 54 28L13 25L9 -3L51 -2C98 0 117 0 141 0L238 -3L264 -3L267 25L218 28C191 30 182 38 182 58C182 67 183 76 186 93L287 648C316 654 336 656 363 656C450 656 496 617 496 543C496 448 418 378 314 378L270 378L267 367C401 172 432 124 507 -3C507 -3 592 0 592 0C593 0 607 -1 626 -3L639 -3L639 24C599 29 588 37 559 79L375 354C430 364 459 376 495 402C553 444 584 499 584 560C584 646 520 693 409 691L108 691Z" stroke="rgb(0,0,0)" stroke-opacity="1" stroke-width="8" fill="rgb(0,0,0)" fill-opacity="1"></path></g></g><g><g transform="matrix(1,0,0,1,476.2421875,254.5390625)"><path transform="matrix(0.017,0,0,-0.017,0,0)" d="M604 241L604 300L364 300L364 538L305 538L305 300L65 300L65 241L305 241L305 0L364 0L364 241Z" stroke="rgb(0,0,0)" stroke-opacity="1" stroke-width="8" fill="rgb(0,0,0)" fill-opacity="1"></path></g></g><g><g transform="matrix(1,0,0,1,491,254.5390625)"><path transform="matrix(0.017,0,0,-0.017,0,0)" d="M236 722L224 733C179 711 138 697 64 691L60 670L108 670C126 670 142 667 142 647C142 641 142 632 140 622L98 388C78 272 36 80 10 2L17 -9L86 7C94 64 108 164 148 236C193 317 296 414 338 414C349 414 360 407 360 393C360 375 355 342 345 303L294 107C288 85 281 55 281 31C281 6 291 -9 312 -9C344 -9 412 41 471 85L461 103L435 86C412 71 386 56 374 56C367 56 361 65 361 76C361 88 364 101 368 116L432 372C438 398 443 423 443 447C443 464 437 482 411 482C376 482 299 437 231 374C198 343 172 308 144 273L140 275Z" stroke="rgb(0,0,0)" stroke-opacity="1" stroke-width="8" fill="rgb(0,0,0)" fill-opacity="1"></path></g></g><g><g transform="matrix(1,0,0,1,499.484375,255.0390625)"><path transform="matrix(0.017,0,0,-0.017,0,0)" d="M51 726L32 700C87 636 187 526 187 266C187 -10 83 -131 32 -194L51 -215C104 -165 273 -23 273 265C273 542 108 675 51 726Z" stroke="rgb(0,0,0)" stroke-opacity="1" stroke-width="8" fill="rgb(0,0,0)" fill-opacity="1"></path></g></g><g><g transform="matrix(1,0,0,1,505.1328125,255.0390625)"><path transform="matrix(0.017,0,0,-0.017,0,0)" d="M51 726L32 700C87 636 187 526 187 266C187 -10 83 -131 32 -194L51 -215C104 -165 273 -23 273 265C273 542 108 675 51 726Z" stroke="rgb(0,0,0)" stroke-opacity="1" stroke-width="8" fill="rgb(0,0,0)" fill-opacity="1"></path></g></g></g></g><g><g><g><text x="69" y="297" style="white-space:pre;stroke:none;fill:rgb(0,0,0);fill-opacity:1;font-size:15px;font-family:Arial, Helvetica, sans-serif;font-weight:400;font-style:normal;dominant-baseline:text-before-edge;text-decoration:none solid rgb(0, 0, 0);">Planet Earth</text></g></g></g><g><g><g><text x="71" y="337" style="white-space:pre;stroke:none;fill:rgb(0,0,0);fill-opacity:1;font-size:15px;font-family:Arial, Helvetica, sans-serif;font-weight:400;font-style:normal;dominant-baseline:text-before-edge;text-decoration:none solid rgb(0, 0, 0);">Orbit of ISS</text></g></g></g><g><g><g><text x="233" y="333" style="white-space:pre;stroke:none;fill:rgb(0,0,0);fill-opacity:1;font-size:15px;font-family:Arial, Helvetica, sans-serif;font-weight:400;font-style:normal;dominant-baseline:text-before-edge;text-decoration:none solid rgb(0, 0, 0);">Location of viewer</text></g></g></g><g><g><g><text x="231" y="297" style="white-space:pre;stroke:none;fill:rgb(0,0,0);fill-opacity:1;font-size:15px;font-family:Arial, Helvetica, sans-serif;font-weight:400;font-style:normal;dominant-baseline:text-before-edge;text-decoration:none solid rgb(0, 0, 0);">Plane tangent to viewer&#x27;s position</text></g></g></g><g><g><g><g transform="matrix(1,0,0,1,360.09375,116.9453125)"><path transform="matrix(0.017,0,0,-0.017,0,0)" d="M237 -16C473 -16 572 316 576 504C578 618 546 702 419 702C159 702 72 412 69 199C67 80 101 -16 237 -16ZM401 676C536 676 506 491 485 381L169 381C194 485 272 676 401 676ZM253 13C102 13 147 261 163 349L479 349C454 237 396 13 253 13Z" stroke="rgb(0,0,0)" stroke-opacity="1" stroke-width="8" fill="rgb(0,0,0)" fill-opacity="1"></path></g></g></g></g></svg>
</svg>
